<?xml version="1.0" encoding="UTF-8" standalone="no"?>
<!-- Created with Inkscape (http://www.inkscape.org/) -->

<svg
   width="908.51147"
   height="146.90884"
   viewBox="0 0 240.37698 38.869633"
   version="1.1"
   id="svg1"
   inkscape:version="1.3.2 (091e20e, 2023-11-25, custom)"
   sodipodi:docname="Logo.svg"
   xmlns:inkscape="http://www.inkscape.org/namespaces/inkscape"
   xmlns:sodipodi="http://sodipodi.sourceforge.net/DTD/sodipodi-0.dtd"
   xmlns="http://www.w3.org/2000/svg"
   xmlns:svg="http://www.w3.org/2000/svg">
  <sodipodi:namedview
     id="namedview1"
     pagecolor="#ffffff"
     bordercolor="#666666"
     borderopacity="1.0"
     inkscape:showpageshadow="2"
     inkscape:pageopacity="0.0"
     inkscape:pagecheckerboard="0"
     inkscape:deskcolor="#d1d1d1"
     inkscape:document-units="mm"
     showguides="false"
     inkscape:zoom="0.83226468"
     inkscape:cx="453.58166"
     inkscape:cy="72.69322"
     inkscape:window-width="1920"
     inkscape:window-height="991"
     inkscape:window-x="-9"
     inkscape:window-y="-9"
     inkscape:window-maximized="1"
     inkscape:current-layer="layer1" />
  <defs
     id="defs1">
    <rect
       x="66.362801"
       y="50.831081"
       width="864.12836"
       height="244.27158"
       id="rect5" />
    <rect
       x="91.778343"
       y="122.13579"
       width="803.41345"
       height="82.60051"
       id="rect4" />
    <rect
       x="91.778343"
       y="122.84178"
       width="525.25452"
       height="83.306496"
       id="rect3" />
    <rect
       x="90.366364"
       y="121.4298"
       width="621.26874"
       height="79.070572"
       id="rect2" />
    <rect
       x="101.66216"
       y="73.422668"
       width="761.05426"
       height="190.61655"
       id="rect1" />
    <filter
       y="-0.59697682"
       height="2.1939535"
       inkscape:menu-tooltip="Darkens the edge with an inner blur and adds a flexible glow"
       inkscape:menu="Shadows and Glows"
       inkscape:label="Dark and Glow"
       style="color-interpolation-filters:sRGB"
       id="filter50"
       x="-0.14509846"
       width="1.2901969">
      <feGaussianBlur
         stdDeviation="5"
         result="result6"
         id="feGaussianBlur49" />
      <feComposite
         result="result8"
         in="SourceGraphic"
         operator="atop"
         in2="result6"
         id="feComposite49" />
      <feComposite
         result="result9"
         operator="over"
         in2="SourceAlpha"
         in="result8"
         id="feComposite50" />
      <feColorMatrix
         values="1 0 0 0 0 0 1 0 0 0 0 0 1 0 0 0 0 0 1 0 "
         result="result10"
         id="feColorMatrix50" />
      <feBlend
         in="result10"
         mode="normal"
         in2="result6"
         id="feBlend50" />
    </filter>
    <rect
       x="66.362801"
       y="50.831081"
       width="864.12836"
       height="244.27158"
       id="rect9" />
    <filter
       inkscape:collect="always"
       style="color-interpolation-filters:sRGB"
       id="filter11"
       x="-0.076083874"
       y="-0.3130309"
       width="1.1521677"
       height="1.6260618">
      <feGaussianBlur
         inkscape:collect="always"
         stdDeviation="2.2909852"
         id="feGaussianBlur11" />
    </filter>
  </defs>
  <g
     inkscape:label="Text"
     inkscape:groupmode="layer"
     id="layer1"
     transform="translate(-12.103173,-26.867267)">
    <text
       xml:space="preserve"
       transform="scale(0.26458333)"
       id="text4"
       style="font-style:normal;font-variant:normal;font-weight:normal;font-stretch:normal;font-size:117.333px;line-height:1.25;font-family:'Highway Gothic';-inkscape-font-specification:'Highway Gothic';text-align:center;letter-spacing:0px;word-spacing:0px;white-space:pre;shape-inside:url(#rect5);display:none;fill:#000000;fill-opacity:1;stroke:none"
       x="107.16"
       y="0"
       inkscape:label="Original text"><tspan
         x="68.070883"
         y="153.49841"
         id="tspan3"><tspan
   style="font-family:Orbitron;-inkscape-font-specification:Orbitron"
   id="tspan1">Silver</tspan> <tspan
   style="font-family:Consolas;-inkscape-font-specification:Consolas"
   id="tspan2">Scripts</tspan></tspan></text>
    <g
       id="g11"
       transform="translate(3.7413699,3.1074668)">
      <path
         style="font-size:117.333px;line-height:1.25;font-family:Orbitron;-inkscape-font-specification:Orbitron;text-align:center;letter-spacing:0px;word-spacing:0px;text-anchor:middle;white-space:pre;fill:#8afafa;fill-opacity:1;stroke:#8afafa;stroke-width:3.96875;stroke-dasharray:none;stroke-opacity:1;filter:url(#filter11)"
         d="M 38.19648,37.389322 H 35.681886 V 36.52008 q 0,-0.49671 -0.372531,-0.838198 -0.34149,-0.372532 -0.838197,-0.372532 H 19.569866 q -0.49671,0 -0.869242,0.372532 -0.341488,0.341488 -0.341488,0.838198 v 4.998141 q 0,0.496711 0.341488,0.838198 0.372532,0.341487 0.869242,0.341487 h 14.901292 q 0.776107,0 1.459084,0.310443 0.682974,0.2794 1.179685,0.807154 0.49671,0.49671 0.77611,1.179687 0.310443,0.651931 0.310443,1.428039 v 4.998143 q 0,0.776107 -0.310443,1.459084 -0.2794,0.682974 -0.77611,1.179685 -0.496711,0.49671 -1.179685,0.807153 -0.682977,0.2794 -1.459084,0.2794 H 19.569866 q -0.776109,0 -1.459085,-0.2794 -0.682976,-0.310443 -1.179685,-0.807153 -0.49671,-0.496711 -0.807154,-1.179685 -0.279399,-0.682977 -0.279399,-1.459084 v -0.869244 h 2.514593 v 0.869244 q 0,0.496707 0.341488,0.869241 0.372532,0.341487 0.869242,0.341487 h 14.901292 q 0.496707,0 0.838197,-0.341487 0.372531,-0.372534 0.372531,-0.869241 v -4.998143 q 0,-0.496708 -0.372531,-0.838198 -0.34149,-0.341487 -0.838197,-0.341487 H 19.569866 q -0.776109,0 -1.459085,-0.2794 -0.682976,-0.310443 -1.179685,-0.807154 -0.49671,-0.527753 -0.807154,-1.179684 -0.279399,-0.682977 -0.279399,-1.459085 V 36.52008 q 0,-0.776109 0.279399,-1.459085 0.310444,-0.682976 0.807154,-1.179685 0.496709,-0.49671 1.179685,-0.776109 0.682976,-0.310444 1.459085,-0.310444 h 14.901292 q 0.776107,0 1.459084,0.310444 0.682974,0.279399 1.179685,0.776109 0.49671,0.496709 0.77611,1.179685 0.310443,0.682976 0.310443,1.459085 z m 3.197583,-0.248355 h 2.545638 v 18.005727 h -2.545638 z m 2.545638,-5.898428 v 2.545638 h -2.545638 v -2.545638 z m 6.457233,0 v 20.147787 q 0,0.49671 0.341487,0.869243 0.372533,0.341487 0.869243,0.341487 h 3.042346 v 2.545638 h -3.042346 q -0.77611,0 -1.459087,-0.2794 -0.682974,-0.310443 -1.210728,-0.807153 -0.49671,-0.527754 -0.807153,-1.210731 -0.2794,-0.682974 -0.2794,-1.459084 V 31.242539 Z m 26.88441,5.898428 -9.965238,18.005727 H 64.366894 Q 61.883345,50.583174 59.399797,46.143831 56.916248,41.673442 54.4327,37.140967 h 2.980256 l 8.444066,15.522179 8.444066,-15.522179 z m 16.236206,0 q 0.77611,0 1.459087,0.310444 0.714023,0.279399 1.210733,0.807153 0.52775,0.49671 0.80715,1.179685 0.31044,0.682976 0.31044,1.459085 v 6.519315 H 81.503385 v 3.973677 q 0,0.49671 0.341489,0.869243 0.372531,0.341487 0.869241,0.341487 H 97.30496 v 2.545638 H 82.714115 q -0.776107,0 -1.459084,-0.2794 Q 80.572054,54.556851 80.0443,54.060141 79.54759,53.532387 79.237146,52.84941 78.957749,52.166436 78.957749,51.390326 V 40.897334 q 0,-0.776109 0.279397,-1.459085 0.310444,-0.682975 0.807154,-1.179685 0.527754,-0.527754 1.210731,-0.807153 0.682977,-0.310444 1.459084,-0.310444 z m 1.210731,7.730044 v -3.973677 q 0,-0.49671 -0.341487,-0.838198 -0.341487,-0.372532 -0.869244,-0.372532 H 82.714115 q -0.49671,0 -0.869241,0.372532 -0.341489,0.341488 -0.341489,0.838198 v 3.973677 z M 114.1931,37.140967 v 2.545637 h -10.12046 q -0.49671,0 -0.86924,0.372532 -0.34149,0.341488 -0.34149,0.838198 v 14.24936 h -2.54564 v -14.24936 q 0,-0.776109 0.2794,-1.459085 0.31045,-0.682975 0.80716,-1.179685 0.52775,-0.527754 1.21073,-0.807153 0.68297,-0.310444 1.45908,-0.310444 z"
         id="path11"
         inkscape:label="Silver glow" />
      <path
         style="font-size:117.333px;line-height:1.25;font-family:Orbitron;-inkscape-font-specification:Orbitron;text-align:center;letter-spacing:0px;word-spacing:0px;text-anchor:middle;white-space:pre;fill:#eceff0;fill-opacity:1;stroke:#929596;stroke-width:1.05833;stroke-dasharray:none;stroke-opacity:1"
         d="M 38.19648,37.389322 H 35.681886 V 36.52008 q 0,-0.49671 -0.372531,-0.838198 -0.34149,-0.372532 -0.838197,-0.372532 H 19.569866 q -0.49671,0 -0.869242,0.372532 -0.341488,0.341488 -0.341488,0.838198 v 4.998141 q 0,0.496711 0.341488,0.838198 0.372532,0.341487 0.869242,0.341487 h 14.901292 q 0.776107,0 1.459084,0.310443 0.682974,0.2794 1.179685,0.807154 0.49671,0.49671 0.77611,1.179687 0.310443,0.651931 0.310443,1.428039 v 4.998143 q 0,0.776107 -0.310443,1.459084 -0.2794,0.682974 -0.77611,1.179685 -0.496711,0.49671 -1.179685,0.807153 -0.682977,0.2794 -1.459084,0.2794 H 19.569866 q -0.776109,0 -1.459085,-0.2794 -0.682976,-0.310443 -1.179685,-0.807153 -0.49671,-0.496711 -0.807154,-1.179685 -0.279399,-0.682977 -0.279399,-1.459084 v -0.869244 h 2.514593 v 0.869244 q 0,0.496707 0.341488,0.869241 0.372532,0.341487 0.869242,0.341487 h 14.901292 q 0.496707,0 0.838197,-0.341487 0.372531,-0.372534 0.372531,-0.869241 v -4.998143 q 0,-0.496708 -0.372531,-0.838198 -0.34149,-0.341487 -0.838197,-0.341487 H 19.569866 q -0.776109,0 -1.459085,-0.2794 -0.682976,-0.310443 -1.179685,-0.807154 -0.49671,-0.527753 -0.807154,-1.179684 -0.279399,-0.682977 -0.279399,-1.459085 V 36.52008 q 0,-0.776109 0.279399,-1.459085 0.310444,-0.682976 0.807154,-1.179685 0.496709,-0.49671 1.179685,-0.776109 0.682976,-0.310444 1.459085,-0.310444 h 14.901292 q 0.776107,0 1.459084,0.310444 0.682974,0.279399 1.179685,0.776109 0.49671,0.496709 0.77611,1.179685 0.310443,0.682976 0.310443,1.459085 z m 3.197583,-0.248355 h 2.545638 v 18.005727 h -2.545638 z m 2.545638,-5.898428 v 2.545638 h -2.545638 v -2.545638 z m 6.457233,0 v 20.147787 q 0,0.49671 0.341487,0.869243 0.372533,0.341487 0.869243,0.341487 h 3.042346 v 2.545638 h -3.042346 q -0.77611,0 -1.459087,-0.2794 -0.682974,-0.310443 -1.210728,-0.807153 -0.49671,-0.527754 -0.807153,-1.210731 -0.2794,-0.682974 -0.2794,-1.459084 V 31.242539 Z m 26.88441,5.898428 -9.965238,18.005727 H 64.366894 Q 61.883345,50.583174 59.399797,46.143831 56.916248,41.673442 54.4327,37.140967 h 2.980256 l 8.444066,15.522179 8.444066,-15.522179 z m 16.236206,0 q 0.77611,0 1.459087,0.310444 0.714023,0.279399 1.210733,0.807153 0.52775,0.49671 0.80715,1.179685 0.31044,0.682976 0.31044,1.459085 v 6.519315 H 81.503385 v 3.973677 q 0,0.49671 0.341489,0.869243 0.372531,0.341487 0.869241,0.341487 H 97.30496 v 2.545638 H 82.714115 q -0.776107,0 -1.459084,-0.2794 Q 80.572054,54.556851 80.0443,54.060141 79.54759,53.532387 79.237146,52.84941 78.957749,52.166436 78.957749,51.390326 V 40.897334 q 0,-0.776109 0.279397,-1.459085 0.310444,-0.682975 0.807154,-1.179685 0.527754,-0.527754 1.210731,-0.807153 0.682977,-0.310444 1.459084,-0.310444 z m 1.210731,7.730044 v -3.973677 q 0,-0.49671 -0.341487,-0.838198 -0.341487,-0.372532 -0.869244,-0.372532 H 82.714115 q -0.49671,0 -0.869241,0.372532 -0.341489,0.341488 -0.341489,0.838198 v 3.973677 z M 114.1931,37.140967 v 2.545637 h -10.12046 q -0.49671,0 -0.86924,0.372532 -0.34149,0.341488 -0.34149,0.838198 v 14.24936 h -2.54564 v -14.24936 q 0,-0.776109 0.2794,-1.459085 0.31045,-0.682975 0.80716,-1.179685 0.52775,-0.527754 1.21073,-0.807153 0.68297,-0.310444 1.45908,-0.310444 z"
         id="path9"
         inkscape:label="Silver" />
      <path
         style="font-size:117.333px;line-height:1.25;font-family:Consolas;-inkscape-font-specification:Consolas;text-align:center;letter-spacing:0px;word-spacing:0px;text-anchor:middle;white-space:pre;stroke-width:0.286033"
         d="m 138.71463,48.841749 q 0,1.524017 -0.6227,2.671128 -0.62272,1.147107 -1.73706,1.917312 -1.11433,0.753812 -2.68751,1.130721 -1.55679,0.376905 -3.44133,0.376905 -0.85214,0 -1.70428,-0.06555 -0.83574,-0.06555 -1.62234,-0.163874 -0.7702,-0.09832 -1.45846,-0.229422 -0.68827,-0.131097 -1.24544,-0.278582 v -2.818611 q 1.22905,0.458843 2.75307,0.721038 1.5404,0.262198 3.49048,0.262198 1.40932,0 2.39255,-0.213034 0.99962,-0.229422 1.62234,-0.655491 0.6391,-0.442456 0.91769,-1.065174 0.29497,-0.622717 0.29497,-1.425693 0,-0.868525 -0.49163,-1.474856 -0.47523,-0.622713 -1.26181,-1.097947 -0.78659,-0.491617 -1.8026,-0.884912 -0.99962,-0.409683 -2.04841,-0.835752 -1.04878,-0.426067 -2.0648,-0.917686 -0.99963,-0.508007 -1.78622,-1.179885 -0.78658,-0.688265 -1.2782,-1.605951 -0.47523,-0.917688 -0.47523,-2.179508 0,-1.097948 0.45884,-2.163121 0.45884,-1.065172 1.4257,-1.884536 0.96684,-0.835751 2.47447,-1.343757 1.52402,-0.508005 3.6216,-0.508005 0.54077,0 1.16349,0.04916 0.6391,0.04917 1.27821,0.147486 0.65549,0.08193 1.27821,0.196647 0.63909,0.114711 1.17988,0.245809 v 2.621964 q -1.26182,-0.36052 -2.52364,-0.54078 -1.26182,-0.196648 -2.44171,-0.196648 -2.50725,0 -3.68713,0.835751 -1.17989,0.835752 -1.17989,2.245057 0,0.868527 0.47524,1.491241 0.49161,0.622717 1.2782,1.114337 0.78659,0.491617 1.78622,0.901299 1.016,0.393296 2.06479,0.819365 1.04879,0.426066 2.04841,0.934073 1.01601,0.508006 1.8026,1.212658 0.78659,0.688268 1.26182,1.622341 0.49161,0.934076 0.49161,2.212281 z m 17.51801,5.194767 q -1.11434,0.426069 -2.29422,0.622717 -1.1635,0.213035 -2.40894,0.213035 -3.90017,0 -6.01412,-2.11396 -2.09757,-2.113957 -2.09757,-6.178001 0,-1.950085 0.60633,-3.539653 0.60633,-1.589564 1.70427,-2.720287 1.09795,-1.130722 2.62197,-1.737051 1.52401,-0.622716 3.35938,-0.622716 1.27821,0 2.39255,0.18026 1.11433,0.18026 2.13035,0.589942 v 2.720288 q -1.06518,-0.557169 -2.17952,-0.802978 -1.09794,-0.262195 -2.27782,-0.262195 -1.09795,0 -2.08118,0.426069 -0.96686,0.409681 -1.70429,1.196272 -0.73742,0.786588 -1.16349,1.917309 -0.42607,1.130724 -0.42607,2.556417 0,2.982482 1.44208,4.473725 1.45846,1.474854 4.03127,1.474854 1.16349,0 2.24506,-0.262196 1.09794,-0.262195 2.11396,-0.786589 z m 6.34187,-15.846494 h 2.60558 l 0.082,3.031645 q 1.45846,-1.753438 2.86777,-2.540026 1.42569,-0.786591 2.86777,-0.786591 2.55642,0 3.8674,1.655115 1.32737,1.655115 1.22905,4.916182 h -2.88417 q 0.0492,-2.16312 -0.6391,-3.129967 -0.67188,-0.983239 -1.98286,-0.983239 -0.57355,0 -1.16349,0.213035 -0.57356,0.196648 -1.19628,0.655491 -0.60633,0.442458 -1.29459,1.14711 -0.68827,0.704651 -1.47485,1.704277 v 10.569792 h -2.88417 z m 23.38464,2.359767 h -4.86703 v -2.359767 h 7.75118 v 14.076669 h 4.8998 v 2.376155 h -13.19176 v -2.376155 h 5.40781 z m 0.99962,-9.25881 q 0.47523,0 0.88491,0.180261 0.40968,0.163871 0.70465,0.47523 0.31136,0.311359 0.47523,0.72104 0.18027,0.393295 0.18027,0.868526 0,0.458844 -0.18027,0.868525 -0.16387,0.409683 -0.47523,0.721041 -0.29497,0.311358 -0.70465,0.491618 -0.40968,0.163873 -0.88491,0.163873 -0.47524,0 -0.88491,-0.163873 -0.40968,-0.18026 -0.72104,-0.491618 -0.29497,-0.311358 -0.47523,-0.721041 -0.16388,-0.409681 -0.16388,-0.868525 0,-0.475231 0.16388,-0.868526 0.18026,-0.409681 0.47523,-0.72104 0.31136,-0.311359 0.72104,-0.47523 0.40967,-0.180261 0.88491,-0.180261 z m 25.90829,14.830482 q 0,2.195898 -0.62272,3.834625 -0.60633,1.638727 -1.68789,2.720287 -1.08157,1.081561 -2.55642,1.622338 -1.47486,0.540781 -3.19552,0.540781 -0.78659,0 -1.57318,-0.08194 -0.77019,-0.08193 -1.57317,-0.278585 v 6.882655 h -2.85139 v -23.1716 h 2.54003 l 0.18026,2.753063 q 1.22905,-1.68789 2.62196,-2.359769 1.39292,-0.688266 3.01526,-0.688266 1.4093,0 2.47448,0.589943 1.06517,0.589942 1.78621,1.671502 0.72104,1.065172 1.08156,2.589188 0.36053,1.50763 0.36053,3.375778 z m -2.91694,0.131101 q 0,-1.294596 -0.19664,-2.376156 -0.18027,-1.08156 -0.58996,-1.851761 -0.40967,-0.770202 -1.04877,-1.196272 -0.63911,-0.442456 -1.52402,-0.442456 -0.54079,0 -1.09795,0.180259 -0.55717,0.163874 -1.1635,0.573556 -0.58994,0.393293 -1.26181,1.06517 -0.6555,0.655495 -1.40931,1.63873 v 7.980603 q 0.78659,0.327746 1.65511,0.524393 0.86853,0.180258 1.70427,0.180258 2.31062,0 3.6216,-1.55679 1.31098,-1.573177 1.31098,-4.719534 z m 20.56603,8.160862 q -0.96685,0.245809 -1.99925,0.344133 -1.03239,0.114711 -2.09757,0.114711 -3.09719,0 -4.6212,-1.392919 -1.52402,-1.409306 -1.52402,-4.309854 v -8.58693 h -4.60483 v -2.392543 h 4.60483 v -4.522888 l 2.85139,-0.737428 v 5.260316 h 7.39065 v 2.392543 h -7.39065 v 8.357509 q 0,1.769827 0.93406,2.654739 0.95047,0.868526 2.78585,0.868526 0.78658,0 1.72066,-0.114711 0.93408,-0.1311 1.95008,-0.393295 z m 18.22264,-4.260693 q 0,0.868525 -0.29497,1.556793 -0.29497,0.688265 -0.80297,1.229045 -0.50801,0.524393 -1.17988,0.901299 -0.67189,0.376909 -1.44209,0.622717 -0.75382,0.245809 -1.55679,0.36052 -0.80298,0.11471 -1.57318,0.11471 -1.6715,0 -3.08081,-0.147484 -1.39292,-0.147485 -2.73668,-0.47523 v -2.621963 q 1.44209,0.409679 2.86778,0.622713 1.4257,0.213035 2.835,0.213035 2.04841,0 3.03165,-0.557166 0.98323,-0.557168 0.98323,-1.589564 0,-0.44246 -0.16387,-0.786592 -0.14749,-0.360519 -0.55717,-0.671877 -0.40968,-0.327746 -1.2782,-0.671878 -0.85215,-0.344133 -2.34339,-0.786589 -1.11433,-0.327745 -2.06479,-0.737429 -0.93408,-0.426069 -1.62234,-0.999622 -0.68826,-0.573555 -1.08157,-1.343759 -0.39329,-0.770201 -0.39329,-1.818986 0,-0.688266 0.31136,-1.507629 0.32775,-0.819365 1.09795,-1.524017 0.7702,-0.704652 2.08119,-1.163497 1.31098,-0.475231 3.27744,-0.475231 0.96686,0 2.14674,0.114712 1.17988,0.09832 2.4581,0.360519 v 2.54003 q -1.34376,-0.327746 -2.55642,-0.475233 -1.19627,-0.163871 -2.08118,-0.163871 -1.06518,0 -1.8026,0.163871 -0.72104,0.163874 -1.17989,0.458843 -0.44245,0.278585 -0.63911,0.671881 -0.19665,0.376905 -0.19665,0.819361 0,0.442457 0.16388,0.802979 0.18026,0.360519 0.63911,0.704651 0.47523,0.327746 1.31098,0.671878 0.83575,0.327746 2.17951,0.721041 1.45846,0.42607 2.45808,0.9013 0.99963,0.458843 1.62234,1.032399 0.62272,0.573555 0.88492,1.294593 0.27858,0.721041 0.27858,1.638727 z"
         id="path10"
         inkscape:label="Scripts" />
    </g>
  </g>
</svg>
