<?xml version="1.0" encoding="UTF-8" standalone="no"?>
<!-- Created with Inkscape (http://www.inkscape.org/) -->

<svg
   width="104.81437mm"
   height="38.497482mm"
   viewBox="0 0 104.81437 38.497482"
   version="1.1"
   id="svg1"
   xml:space="preserve"
   inkscape:version="1.3.2 (091e20e, 2023-11-25, custom)"
   sodipodi:docname="Logo.svg"
   xmlns:inkscape="http://www.inkscape.org/namespaces/inkscape"
   xmlns:sodipodi="http://sodipodi.sourceforge.net/DTD/sodipodi-0.dtd"
   xmlns="http://www.w3.org/2000/svg"
   xmlns:svg="http://www.w3.org/2000/svg"><sodipodi:namedview
     id="namedview1"
     pagecolor="#ffffff"
     bordercolor="#666666"
     borderopacity="1.0"
     inkscape:showpageshadow="2"
     inkscape:pageopacity="0.0"
     inkscape:pagecheckerboard="0"
     inkscape:deskcolor="#d1d1d1"
     inkscape:document-units="mm"
     inkscape:zoom="1.4164562"
     inkscape:cx="93.543309"
     inkscape:cy="37.06433"
     inkscape:window-width="1920"
     inkscape:window-height="991"
     inkscape:window-x="-9"
     inkscape:window-y="-9"
     inkscape:window-maximized="1"
     inkscape:current-layer="svg1" /><defs
     id="defs1" /><g
     inkscape:groupmode="layer"
     id="layer2"
     inkscape:label="verse"
     style="display:inline;fill:#ff0000;stroke:#c2342f;stroke-opacity:1"
     transform="translate(-41.88528,-98.542377)"><path
       style="fill:none;stroke:#c2342f;stroke-width:0.529;stroke-linecap:butt;stroke-linejoin:miter;stroke-dasharray:none;stroke-opacity:1"
       d="m 129.96889,130.6293 c 0,1.84156 -0.18121,0.36966 0.39625,1.71707 0.29636,0.69151 0.5324,1.40736 0.79249,2.11332 0.0481,0.13064 0.0804,0.26698 0.13208,0.39625 0.0366,0.0914 0.044,0.22013 0.13209,0.26416 0.20381,0.1019 0.13208,-0.49504 0.13208,-0.79249 0,-0.22014 -0.0394,-0.44383 0,-0.66042 0.25797,-0.7739 0.27178,-0.70613 0.39625,-1.4529 0.0512,-0.30708 0.0502,-0.62422 0.13208,-0.92458 0.0518,-0.18995 0.1866,-0.34735 0.26416,-0.52832 0.0548,-0.12797 0.0698,-0.27172 0.13209,-0.39625 0.0816,-0.16321 0.12752,-0.13208 0.26416,-0.13208 0.044,0 0.13208,0.044 0.13208,0 0,-0.044 -0.088,0 -0.13208,0"
       id="path23" /><path
       style="fill:none;stroke:#c2342f;stroke-width:0.529;stroke-linecap:butt;stroke-linejoin:miter;stroke-dasharray:none;stroke-opacity:1"
       d="m 134.06344,132.74262 c 0.43258,-0.21629 1.23891,-0.5785 1.58499,-0.92458 0.0985,-0.0984 0.11239,-0.25842 0.13208,-0.39624 0.0412,-0.28833 2.6e-4,-0.79199 -0.13208,-1.05666 -0.18735,-0.3747 -0.92709,-0.62676 -1.32082,-0.52833 -0.23002,0.0575 -0.54095,0.0594 -0.66042,0.26417 -0.22623,0.38783 -0.20847,0.87529 -0.26416,1.32082 -0.0911,0.7292 0.0828,1.25559 0.26416,1.98123 0.0777,0.31096 0.13154,0.63278 0.26417,0.92458 0.25215,0.55473 0.4339,0.54715 0.92458,0.79249 0.45296,0.22648 0.48287,0.3971 0.92457,0.13208 0.32663,-0.19598 0.26501,-0.33233 0.39625,-0.66041 0.0366,-0.0914 0.0881,-0.17611 0.13208,-0.26416"
       id="path24" /><path
       style="fill:none;stroke:#c2342f;stroke-width:0.529;stroke-linecap:butt;stroke-linejoin:miter;stroke-dasharray:none;stroke-opacity:1"
       d="m 137.23341,130.49722 c 0,1.38988 -0.016,-0.68324 0.13209,1.98124 0.0171,0.30771 0,0.61638 0,0.92457 0.044,0.35222 0.1026,0.70293 0.13208,1.05666 0.0146,0.1755 0,0.35222 0,0.52833 0,0.044 0,0.17611 0,0.13208 0,-0.92982 -0.0408,-1.85172 0.13208,-2.77373 0.12138,-0.64732 0.21146,-1.00395 0.66041,-1.4529 0.11225,-0.11225 0.24565,-0.21397 0.39625,-0.26417 0.1253,-0.0418 0.26416,0 0.39625,0 0.0881,0 0.17782,-0.0173 0.26416,0 0.73002,0.14601 0.16468,0.13209 0.52833,0.13209"
       id="path25" /><path
       style="fill:none;stroke:#c2342f;stroke-width:0.529;stroke-linecap:butt;stroke-linejoin:miter;stroke-dasharray:none;stroke-opacity:1"
       d="m 142.5167,131.28971 c -0.22013,-0.0881 -0.4257,-0.23063 -0.66041,-0.26416 -0.0975,-0.0139 -0.18853,0.0691 -0.26416,0.13208 -0.19133,0.15944 -0.36625,0.33923 -0.52833,0.52833 -0.35469,0.4138 -0.33597,0.58598 -0.39625,1.18874 -0.0331,0.33118 -0.0602,0.53606 0.13208,0.79249 0.17993,0.2399 0.58863,0.50752 0.7925,0.66042 0.45759,0.34319 0.72705,0.40221 0.79249,1.05665 0.0223,0.22339 -0.0166,0.46791 -0.13208,0.66041 -0.0453,0.0755 -0.17611,0 -0.26417,0 -0.64408,0 -0.65678,0.11002 -1.18874,-0.52832 -0.14837,-0.17806 0.0427,-0.30682 0.13209,-0.39625"
       id="path26" /><path
       style="fill:none;stroke:#c2342f;stroke-width:0.529;stroke-linecap:butt;stroke-linejoin:miter;stroke-dasharray:none;stroke-opacity:1"
       d="m 143.96961,133.53511 c 0.14726,-0.0711 1.11215,-0.35405 1.18874,-0.66041 0.0641,-0.25627 0.0328,-0.53037 0,-0.79249 -0.0122,-0.0977 -0.0881,-0.17611 -0.13209,-0.26417 -0.044,-0.0881 -0.0625,-0.19455 -0.13208,-0.26416 -0.17881,-0.17881 -0.61865,-0.2173 -0.79249,0 -0.2608,0.326 -0.49492,1.31619 -0.52833,1.71707 -0.0414,0.49638 -0.0303,1.09781 0.13208,1.58499 0.0623,0.18679 0.16648,0.35737 0.26417,0.52832 0.0486,0.0851 0.37518,0.60937 0.52833,0.66041 1.09891,0.36631 0.92457,0.325 0.92457,-0.39624"
       id="path27" /></g><g
     inkscape:label="Sonic logo"
     inkscape:groupmode="layer"
     id="layer1"
     transform="translate(-41.88528,-98.542377)"
     style="display:inline"><path
       style="fill:#f1ca48;fill-opacity:1;stroke:none;stroke-width:0.489723;stroke-linecap:square"
       d="m 292.78667,464.8361 c -8.56187,-0.20056 -18.57997,2.80061 -22.6194,10.99721 -2.42102,5.58365 0.27734,12.86853 6.2095,14.8935 4.34712,2.20483 9.48536,2.07147 13.80369,4.1203 0.95966,1.0836 1.03,3.8632 -1.01207,3.65436 -5.91,1.1911 -11.90485,0.70591 -17.80464,1.16164 -1.26661,2.63076 -0.18666,6.31447 -0.54517,9.34318 -0.81665,4.0356 4.24823,2.06461 6.5296,2.32794 7.92681,-0.69991 16.26062,0.18518 23.84898,-2.59704 3.67515,-2.13294 7.49461,-5.03587 9.06083,-9.11543 0.60504,-4.33075 0.003,-9.56765 -3.3365,-12.71519 -2.86979,-1.85504 -5.82491,-3.72288 -8.92335,-5.15198 -3.23671,-1.12139 -7.41393,0.19247 -10.1353,-2.08361 -0.42434,-2.52646 3.39757,-2.06942 4.94236,-2.45802 4.02229,-0.59789 8.44622,0.11651 12.23938,-1.3309 1.07032,-1.93194 0.84866,-4.35074 1.50542,-6.45948 -0.27528,-3.70115 -5.04134,-3.99309 -7.86545,-4.3827 -1.96049,-0.17569 -3.93027,-0.22515 -5.89788,-0.20378 z"
       id="path16"
       transform="scale(0.26458333)" /><path
       style="fill:#f1ca48;fill-opacity:1;stroke:none;stroke-width:0.489723;stroke-linecap:square"
       d="m 335.88727,463.0684 c -10.80379,0.15597 -22.59485,7.68114 -23.65014,19.15352 -1.47637,9.67712 0.74474,21.48342 9.89754,26.72685 5.99958,3.47721 13.34371,2.50309 19.9303,1.83303 8.42924,-1.45453 16.84771,-8.1121 16.98869,-17.24219 0.38819,-5.86215 1.05025,-11.90646 0.31103,-17.68582 -6.37405,-6.35022 -13.89179,-12.98028 -23.47742,-12.78539 z m 2.29714,17.43134 c 3.81662,-0.36454 6.6207,3.4432 5.8189,7.06399 -1.1722,5.09086 -5.76292,9.76314 -11.03329,10.32933 -3.15657,-0.61546 -6.29841,-2.72949 -8.05656,-5.42597 0.9459,-5.94306 7.14496,-11.85606 13.27095,-11.96735 z"
       id="path17"
       transform="scale(0.26458333)" /><path
       style="fill:#f1ca48;fill-opacity:1;stroke:none;stroke-width:0.489723;stroke-linecap:square"
       d="m 373.26062,464.11459 c -3.19492,0.14916 -6.4261,0.0614 -9.59513,0.49141 -1.67684,2.04579 -0.25966,5.25961 -0.73224,7.73383 0.0507,12.87116 0.24625,25.74115 0.37733,38.61162 1.64312,2.12726 5.3745,0.48626 7.88787,0.99461 2.66423,0.16374 6.72831,0.19174 7.17906,-3.2664 1.10588,-6.09316 0.37661,-12.52009 2.03193,-18.45413 2.14096,2.66042 2.78564,6.42287 4.35832,9.51226 2.08615,4.39486 3.63828,9.24398 6.32786,13.22609 6.14436,-0.70689 12.39948,-0.29864 18.49992,-0.73144 1.2614,-2.61189 0.14886,-6.27674 0.48986,-9.28666 -0.28963,-12.0347 0.2984,-24.14244 -0.7755,-36.13234 -1.53111,-1.98328 -4.76676,-1.11365 -6.9901,-1.60909 -2.56698,0.30258 -6.08223,-1.2575 -8.01542,0.43204 -0.23891,6.9969 0.82576,14.17104 -0.0331,21.06835 -4.32909,-6.42398 -7.37901,-13.59969 -10.41947,-20.70879 -0.52105,-3.67147 -4.99934,-1.48843 -7.46923,-1.95954 -1.04064,0.0261 -2.08129,0.0521 -3.12193,0.0782 z"
       id="path18"
       transform="scale(0.26458333)" /><path
       style="fill:#f1ca48;fill-opacity:1;stroke:none;stroke-width:0.489723;stroke-linecap:square"
       d="m 418.43703,464.35542 c -1.33925,13.66341 -0.61455,27.55457 -0.49434,41.30852 0.53956,1.89849 -0.99438,5.75523 1.76868,6.1738 5.49507,0.30648 11.15021,1.27281 16.56553,0.79659 0.66049,-8.7744 0.0937,-17.78851 0.28275,-26.655 -0.13736,-7.12551 0.27511,-14.37032 -0.20688,-21.42107 -2.67597,-1.2649 -6.40125,-0.19271 -9.47698,-0.54605 -2.77015,0.2267 -5.80193,-0.4563 -8.43876,0.34321 z"
       id="path19"
       transform="scale(0.26458333)" /><path
       style="fill:#f1ca48;fill-opacity:1;stroke:none;stroke-width:0.489723;stroke-linecap:square"
       d="m 468.97992,464.14579 c -7.42703,0.13005 -15.25378,1.85335 -20.62761,7.35416 -2.83448,2.80076 -6.10673,5.39385 -8.3801,8.60978 0.50138,6.43707 -0.57673,13.14079 1.24217,19.40965 3.5734,6.47042 10.31654,11.65091 17.95075,11.71307 6.28436,0.12671 12.97153,0.4568 18.89804,-1.92585 2.14026,-1.69617 -0.19674,-4.75143 -0.28505,-6.90006 -0.95731,-2.89718 -1.2954,-6.18075 -2.9208,-8.74505 -3.757,0.86646 -7.05401,4.1888 -11.26729,3.5276 -3.37388,0.27543 -7.90531,-1.17319 -7.5554,-5.33918 -0.10142,-4.79329 4.52859,-7.90314 8.34809,-9.89642 3.9576,-1.96309 8.62185,-1.74215 12.64109,-3.17563 0.99079,-4.23185 2.81511,-8.45616 2.9387,-12.82244 -1.93097,-1.68688 -5.12398,-1.1102 -7.57588,-1.678 -1.13238,-0.10064 -2.26982,-0.15071 -3.40671,-0.13163 z"
       id="path20"
       transform="scale(0.26458333)" /><path
       style="fill:#2c367b;fill-opacity:1"
       d="m 95.134563,136.76187 c -0.254661,-0.14832 -0.463021,-0.56142 -0.463021,-0.91799 0,-0.75989 -0.192333,-0.80177 -1.019948,-0.22209 -2.414253,1.69101 -8.329006,1.46299 -10.415782,-0.40155 l -0.830536,-0.74208 -1.136411,0.86744 c -1.533289,1.17039 -3.29213,1.52103 -6.983368,1.39222 -3.225606,-0.11256 -4.119806,-0.40823 -4.38438,-1.44972 -0.164812,-0.64877 0.557104,-3.71061 1.000988,-4.24546 0.220451,-0.26563 0.19355,-0.47015 -0.106933,-0.81297 -1.826667,-2.08407 -1.54673,-4.90997 0.680066,-6.86512 1.890808,-1.66015 6.007725,-2.1772 9.037022,-1.13497 1.921593,0.66113 2.312635,0.97683 2.096282,1.6924 -0.140205,0.46372 -0.01832,0.41525 0.72163,-0.28696 1.249683,-1.18596 3.015232,-1.92049 4.632771,-1.92739 1.527311,-0.007 4.280019,0.77012 5.590515,1.57728 1.105771,0.68108 1.118084,0.67857 1.118084,-0.22778 0,-0.41874 0.157685,-0.89222 0.35041,-1.05217 0.490143,-0.40678 3.785073,-0.67398 5.566438,-0.45141 1.42727,0.17832 1.50858,0.23092 1.99654,1.29156 l 0.50868,1.10567 0.0223,-1.12448 c 0.0123,-0.61847 0.11159,-1.13151 0.22073,-1.1401 0.10914,-0.009 0.67468,-0.0546 1.25677,-0.1023 0.58208,-0.0477 1.89177,0.001 2.91041,0.1084 1.01865,0.1073 1.89178,0.0938 1.94028,-0.03 0.14228,-0.36309 6.50037,-0.27756 6.87035,0.0924 0.17462,0.17463 0.3175,0.89698 0.3175,1.60522 v 1.28771 l 1.12448,-0.91081 c 2.04278,-1.65461 2.70915,-1.87729 5.62239,-1.8788 1.45521,-7.6e-4 3.15185,0.14696 3.77032,0.32827 1.09521,0.32106 1.12423,0.35865 1.11511,1.44392 -0.005,0.61286 -0.27304,1.88819 -0.59531,2.83408 -0.62718,1.84082 -0.58293,1.81535 -2.49313,1.43508 -0.62358,-0.12414 -1.09391,-0.0175 -1.77228,0.40173 -0.79178,0.48935 -1.41312,1.42358 -1.24195,1.86735 0.0881,0.22855 1.45791,-0.0279 2.01099,-0.37651 0.29105,-0.18344 0.85296,-0.41325 1.2487,-0.51069 0.57465,-0.14149 0.80105,-0.0527 1.12441,0.44077 0.61199,0.934 1.63957,4.1551 1.67722,5.25744 0.03,0.87799 -0.0511,1.00055 -0.8179,1.23704 -0.46815,0.14438 -1.99309,0.3406 -3.38876,0.43606 -3.03289,0.20742 -4.3607,-0.0851 -6.12752,-1.3501 l -1.25677,-0.89979 v 1.18514 c 0,1.01282 -0.0877,1.20715 -0.60293,1.33647 -0.33161,0.0832 -3.43871,0.11526 -6.90466,0.0712 l -6.30173,-0.0801 -0.6661,-0.79375 c -0.4161,-0.49585 -0.60342,-0.60739 -0.4991,-0.29719 0.33554,0.99777 -0.26837,1.22371 -3.247975,1.21519 -1.54653,-0.004 -3.02023,-0.12941 -3.274892,-0.27774 z m 13.174847,-7.25484 c 0.0438,-4.12576 -0.0259,-5.87744 -0.23958,-6.01522 -0.16578,-0.10692 -1.03426,-0.19621 -1.92995,-0.19844 l -1.62852,-0.004 0.11941,2.91041 c 0.11436,2.78722 -0.0233,3.35197 -0.62872,2.57969 -0.3507,-0.44733 -2.04344,-3.82717 -2.45148,-4.89479 l -0.32865,-0.8599 h -2.629345 c -1.54285,0 -2.56687,0.10111 -2.47814,0.24467 0.0832,0.13457 0.16824,2.87301 0.18904,6.08542 l 0.0378,5.84075 h 1.81095 c 1.7954,0 1.81109,-0.006 1.82667,-0.72761 0.03226,-1.49059 0.268045,-4.44304 0.380455,-4.7625 0.20161,-0.57289 0.64512,-0.35984 0.82617,0.39688 0.0958,0.40018 0.66357,1.76889 1.26181,3.04157 l 1.08772,2.31397 2.35625,-0.065 2.35625,-0.065 z m 6.98926,-0.26459 0.0127,-6.21771 h -2.21125 -2.21125 l -0.15522,2.57969 c -0.0854,1.41883 -0.0848,4.15116 0.001,6.07184 l 0.15654,3.49216 0.95199,0.10139 c 0.5236,0.0558 1.51236,0.1214 2.19724,0.14586 l 1.24524,0.0445 z m -36.804792,5.52632 c 0.870941,-0.10821 1.443398,-0.4113 2.342945,-1.24047 1.169436,-1.07795 1.188354,-1.12196 1.074185,-2.49869 -0.120821,-1.45694 -0.628829,-2.21187 -1.72185,-2.55879 -0.303093,-0.0962 -0.695472,-0.34888 -0.871953,-0.56153 -0.20907,-0.25192 -0.819521,-0.38663 -1.751988,-0.38663 -1.033382,0 -1.473801,-0.11123 -1.584704,-0.40024 -0.325603,-0.84851 0.411618,-1.18726 2.583843,-1.18726 1.929991,0 2.08427,-0.0405 2.08427,-0.54656 0,-0.30061 0.116163,-0.76361 0.258141,-1.0289 0.380268,-0.71054 -0.989983,-1.18791 -3.433141,-1.19605 -3.592853,-0.012 -6.273214,1.85913 -5.989444,4.18111 0.212385,1.73785 1.112685,2.42573 3.827677,2.92456 1.606333,0.29513 1.772216,0.38632 1.84642,1.01505 0.101655,0.86132 -0.202063,0.96672 -3.057288,1.06102 l -2.18201,0.0721 -8.02e-4,1.34881 -8.03e-4,1.3488 2.711979,-0.10154 c 1.491588,-0.0558 3.230624,-0.16599 3.864523,-0.24475 z m 13.620517,-0.35371 c 0.808504,-0.39301 1.538785,-1.01355 1.984375,-1.68619 0.629306,-0.94996 0.714843,-1.36082 0.796072,-3.82381 l 0.09101,-2.7595 -1.413925,-1.36752 c -2.188976,-2.11715 -4.893034,-2.61793 -7.499342,-1.38885 -2.287061,1.07852 -3.324617,2.7542 -3.355062,5.41849 -0.03298,2.88628 0.931923,4.81674 2.928093,5.85819 1.393801,0.72718 4.722346,0.59812 6.468779,-0.25081 z m -5.449642,-3.0982 c -1.116308,-0.79426 -1.127986,-0.83283 -0.620243,-2.04803 0.681138,-1.63019 3.00044,-2.87021 4.200691,-2.2459 0.775116,0.40317 0.706196,0.31522 0.971299,1.23958 0.2937,1.02407 -0.273738,2.15016 -1.557298,3.09047 -1.157232,0.84776 -1.762448,0.84046 -2.994449,-0.0361 z m 2.972434,-1.67074 c 1.710163,-1.59753 0.08787,-2.61039 -1.686191,-1.05275 -1.04208,0.91496 -1.205979,1.47005 -0.48935,1.65732 0.989534,0.2586 1.362461,0.15496 2.175541,-0.60457 z m 35.158653,5.2957 c 0.92488,-0.13372 1.72243,-0.28396 1.77235,-0.33387 0.0499,-0.0499 -0.15621,-0.93731 -0.45804,-1.972 l -0.54879,-1.88125 -0.86392,0.50972 c -1.26806,0.74818 -3.26255,0.73155 -3.88113,-0.0324 -1.38898,-1.71532 0.71393,-4.06443 4.01437,-4.48437 l 1.18728,-0.15106 0.43824,-1.6262 0.43824,-1.6262 -0.79869,-0.15974 c -1.48946,-0.29789 -3.76995,-0.16421 -5.09818,0.29886 -0.91144,0.31776 -1.79611,0.93748 -2.84427,1.99243 l -1.52135,1.53121 v 2.39216 c 0,2.17921 0.0623,2.47387 0.70011,3.31006 1.70935,2.24107 3.56532,2.79624 7.46378,2.23262 z"
       id="path15" /></g><g
     id="g20"
     transform="matrix(0.26458333,0,0,0.26458333,0.00248366,-0.81403278)"
     inkscape:label="PrincessPandaLover logo"
     style="display:inline"><g
       id="ID0.8865895136259496"
       style="stroke:#2c367b;stroke-width:1.99937;stroke-dasharray:none;stroke-opacity:1"><path
         id="ID0.1407756246626377"
         fill="none"
         stroke="#ff00bf"
         stroke-width="2"
         stroke-linecap="round"
         d="m 107,14.5 c 0,0 0.904,9.349 1.5,14 0.237,1.846 0.769,3.653 1,5.5 0.103,0.826 -0.083,1.672 0,2.5 0.084,0.845 0.333,1.667 0.5,2.5 0.167,0.833 0.256,1.687 0.5,2.5 0.258,0.859 0.805,1.625 1,2.5 0.144,0.65 -0.116,1.344 0,2 0.386,2.188 1.135,4.309 1.5,6.5 0.137,0.821 -0.092,1.673 0,2.5 0.076,0.682 0.356,1.329 0.5,2 0.356,1.66 0.644,3.34 1,5 0.144,0.671 0.415,1.319 0.5,2 0.083,0.661 -0.083,1.339 0,2 0.251,2.01 0.798,3.984 1,6 0.133,1.325 0,3.74 0,4 0,0.26 0,-2.5 0,-2.5"
         style="stroke:#2c367b;stroke-width:1.99937;stroke-dasharray:none;stroke-opacity:1" /><path
         id="ID0.12032430293038487"
         fill="none"
         stroke="#ff00bf"
         stroke-width="2"
         stroke-linecap="round"
         d="m 106,16 c 0,0 6.565,-5.524 10.5,-7 1.743,-0.654 3.772,0.309 5.5,1 0.875,0.35 1.38,1.291 2,2 0.548,0.627 1.059,1.294 1.5,2 0.395,0.631 0.781,1.288 1,2 0.451,1.467 0.783,2.98 1,4.5 0.118,0.824 0,1.667 0,2.5 0,0.833 0.092,1.673 0,2.5 -0.076,0.682 -0.236,1.366 -0.5,2 -0.573,1.375 -1.2,2.744 -2,4 -0.379,0.596 -1.04,0.964 -1.5,1.5 -0.542,0.632 -0.958,1.368 -1.5,2 -0.46,0.536 -0.925,1.089 -1.5,1.5 -0.606,0.433 -1.334,0.667 -2,1 -0.666,0.333 -1.278,0.819 -2,1 -0.646,0.162 -1.336,-0.055 -2,0 -1.338,0.111 -4,0.5 -4,0.5"
         style="stroke:#2c367b;stroke-width:1.99937;stroke-dasharray:none;stroke-opacity:1" /><path
         id="ID0.2844141749665141"
         fill="none"
         stroke="#ff00bf"
         stroke-width="2"
         stroke-linecap="round"
         d="m 130.5,40 c 0,0 1.662,10.416 3,15.5 1.166,4.43 2.765,8.76 4.5,13 0.434,1.06 0.25,-1.072 0,-2 -0.999,-3.712 -2.32,-7.342 -3.5,-11 -0.485,-1.503 -1.296,-2.934 -1.5,-4.5 -0.301,-2.311 -0.383,-4.701 0,-7 0.295,-1.769 1.242,-3.375 2,-5 0.411,-0.88 1,-1.667 1.5,-2.5 0.5,-0.833 0.692,-1.961 1.5,-2.5 1.314,-0.876 2.942,-1.24 4.5,-1.5 1.478,-0.246 3.019,-0.228 4.5,0 0.736,0.113 1.419,0.535 2,1 0.291,0.233 0.5,1 0.5,1"
         style="stroke:#2c367b;stroke-width:1.99937;stroke-dasharray:none;stroke-opacity:1" /><path
         id="ID0.10640219878405333"
         fill="none"
         stroke="#ff00bf"
         stroke-width="2"
         stroke-linecap="round"
         d="m 156.5,40 c 0,0 1.542,8.032 2.5,12 0.239,0.992 0.636,1.681 1,2.5 0.302,0.68 0.698,1.32 1,2 0.364,0.819 0.525,1.74 1,2.5 0.374,0.599 1.04,0.964 1.5,1.5 0.542,0.632 0.873,1.452 1.5,2 0.731,0.639 1.651,1.029 2.5,1.5 0.651,0.362 1.35,1.26 2,1 0.6,-0.24 0.333,-1.334 0.5,-2 0.042,-0.167 0,0 0,0"
         style="stroke:#2c367b;stroke-width:1.99937;stroke-dasharray:none;stroke-opacity:1" /><path
         id="ID0.5316684176214039"
         fill="none"
         stroke="#ff00bf"
         stroke-width="2"
         stroke-linecap="round"
         d="m 158.5,27.5 0.3,0.3"
         style="stroke:#2c367b;stroke-width:1.99937;stroke-dasharray:none;stroke-opacity:1" /><path
         id="ID0.4762913747690618"
         fill="none"
         stroke="#ff00bf"
         stroke-width="2"
         stroke-linecap="round"
         d="m 178.5,32.5 c 0,0 4.851,14.284 7,21.5 0.537,1.804 0,1.334 0,2 0,2.498 0.325,6.039 0,7.5 -0.148,0.667 -0.84,-1.959 -1,-3 -0.177,-1.152 0,-2.334 0,-3.5 0,-1.998 -0.074,-4.003 0,-6 0.093,-2.501 0.251,-5.009 0.5,-7.5 0.084,-0.845 0.256,-1.687 0.5,-2.5 0.258,-0.859 0.599,-1.698 1,-2.5 0.434,-0.868 0.763,-1.868 1.5,-2.5 0.521,-0.447 1.334,-0.667 2,-0.5 0.808,0.202 1.473,0.856 2,1.5 0.995,1.216 1.721,2.636 2.5,4 0.554,0.97 1,2.001 1.5,3 0.5,0.999 1.038,1.983 1.5,3 0.371,0.816 0.629,1.684 1,2.5 0.462,1.017 0.965,2.019 1.5,3 0.465,0.852 0.917,1.723 1.5,2.5 0.424,0.565 1.04,0.964 1.5,1.5 0.542,0.632 0.71,1.737 1.5,2 0.57,0.19 1.5,-1 1.5,-1"
         style="stroke:#2c367b;stroke-width:1.99937;stroke-dasharray:none;stroke-opacity:1" /><path
         id="ID0.3363050646148622"
         fill="none"
         stroke="#ff00bf"
         stroke-width="2"
         stroke-linecap="round"
         d="m 217.5,36 c 0,0 -4.366,4.049 -6,6.5 -0.462,0.693 0,1.667 0,2.5 0,0.833 -0.075,1.671 0,2.5 0.092,1.009 0.154,2.048 0.5,3 0.332,0.912 0.961,1.692 1.5,2.5 0.462,0.693 0.958,1.368 1.5,2 0.46,0.536 0.929,1.085 1.5,1.5 1.27,0.924 2.476,2.119 4,2.5 0.722,0.181 1.473,-0.473 2,-1 0.235,-0.235 0,-1 0,-1"
         style="stroke:#2c367b;stroke-width:1.99937;stroke-dasharray:none;stroke-opacity:1" /><path
         id="ID0.807536203879863"
         fill="none"
         stroke="#ff00bf"
         stroke-width="2"
         stroke-linecap="round"
         d="m 226,47.5 c 0,0 6.132,-6.675 8.5,-10.5 0.592,-0.956 -1.388,-0.262 -2,0 -0.649,0.278 -1.089,0.925 -1.5,1.5 -0.433,0.606 -0.739,1.303 -1,2 -0.241,0.643 -0.387,1.323 -0.5,2 -0.221,1.324 -0.5,2.658 -0.5,4 0,0.686 0.193,1.386 0.5,2 0.372,0.745 1,1.334 1.5,2 0.5,0.666 0.868,1.458 1.5,2 0.565,0.485 1.394,0.567 2,1 0.575,0.411 0.887,1.15 1.5,1.5 0.596,0.341 1.334,0.333 2,0.5 0.666,0.167 1.429,0.881 2,0.5 0.746,-0.497 1,-2.5 1,-2.5"
         style="stroke:#2c367b;stroke-width:1.99937;stroke-dasharray:none;stroke-opacity:1" /><path
         id="ID0.8316874853335321"
         fill="none"
         stroke="#ff00bf"
         stroke-width="2"
         stroke-linecap="round"
         d="m 249,35.5 c 0,0 -2.151,6.964 -3,10.5 -0.212,0.884 -0.369,1.446 0,2 0.413,0.62 1.349,0.638 2,1 0.849,0.471 1.692,0.961 2.5,1.5 0.693,0.462 1.411,0.911 2,1.5 0.589,0.589 1.096,1.272 1.5,2 0.435,0.784 0.805,1.625 1,2.5 0.144,0.65 0,1.334 0,2 0,0.833 0.263,1.71 0,2.5 -0.263,0.79 -0.767,1.605 -1.5,2 -1.531,0.824 -3.3,1.136 -5,1.5 -0.651,0.14 -1.67,0.55 -2,0 C 246.08,63.8 247,62 247,62"
         style="stroke:#2c367b;stroke-width:1.99937;stroke-dasharray:none;stroke-opacity:1" /><path
         id="ID0.8267288911156356"
         fill="none"
         stroke="#ff00bf"
         stroke-width="2"
         stroke-linecap="round"
         d="m 261.5,40 c 0,0 -1.654,7.306 -1.5,11 0.038,0.923 1.334,0.667 2,1 0.666,0.333 1.349,0.638 2,1 0.849,0.471 1.651,1.029 2.5,1.5 0.651,0.362 1.404,0.553 2,1 0.753,0.565 1.38,1.291 2,2 0.548,0.627 1.148,1.246 1.5,2 0.824,1.766 1.527,3.609 2,5.5 0.202,0.808 0.083,1.672 0,2.5 -0.084,0.845 0.009,1.821 -0.5,2.5 -0.583,0.777 -1.579,1.193 -2.5,1.5 -0.632,0.211 -1.334,0 -2,0 -0.666,0 -1.347,0.131 -2,0 -0.231,-0.046 -0.5,-0.5 -0.5,-0.5"
         style="stroke:#2c367b;stroke-width:1.99937;stroke-dasharray:none;stroke-opacity:1" /><path
         id="ID0.3660931037738919"
         fill="none"
         stroke="#ff00bf"
         stroke-width="2"
         stroke-linecap="round"
         d="m 294.5,74 c 0,0 -0.35,2.4 -0.5,2.5 -0.2,0.05 -0.4,-1.35 -0.5,-2 -0.2,-0.85 -0.3,-1.7 -0.5,-2.5 -0.65,-2.2 -1.45,-4.35 -2,-6.5 -1.45,-5.35 -2.5,-10.75 -4,-16 -0.5,-1.6 -1.4,-3 -2,-4.5 -0.4,-0.85 -0.7,-1.7 -1,-2.5 -0.35,-0.85 -0.7,-1.7 -1,-2.5 -0.35,-0.85 -0.7,-1.7 -1,-2.5 -0.4,-1 -0.65,-2.05 -1,-3 -0.35,-0.85 -0.7,-1.7 -1,-2.5 -0.7,-1.7 -1.55,-3.3 -2,-5 -1.35,-4.65 -3.5,-14 -3.5,-14 0,1 7.485,-2.853 11.5,-4 1.004,-0.287 1.716,0.565 2.5,1 0.728,0.404 1.411,0.911 2,1.5 0.589,0.589 0.958,1.368 1.5,2 0.46,0.536 1.076,0.935 1.5,1.5 0.583,0.777 1.066,1.632 1.5,2.5 0.401,0.802 0.525,1.74 1,2.5 0.374,0.599 1.15,0.887 1.5,1.5 0.341,0.596 0.259,1.357 0.5,2 0.261,0.697 0.739,1.303 1,2 0.241,0.643 0.457,1.315 0.5,2 0.125,1.994 0,4.002 0,6 0,0.666 0.162,1.354 0,2 -0.181,0.722 -0.502,1.447 -1,2 -1.027,1.141 -2.06,2.469 -3.5,3 -1.881,0.693 -3.995,0.5 -6,0.5 -0.686,0 -1.317,-0.432 -2,-0.5 -0.994,-0.099 -3,0 -3,0"
         style="stroke:#2c367b;stroke-width:1.99937;stroke-dasharray:none;stroke-opacity:1" /><path
         id="ID0.624334723688662"
         fill="none"
         stroke="#ff00bf"
         stroke-width="2"
         stroke-linecap="round"
         d="m 315.5,45 c 0,0 -4.194,4.86 -6,7.5 -0.452,0.66 -0.351,1.33 -0.5,2 -0.184,0.829 -0.388,1.658 -0.5,2.5 -0.221,1.659 -0.402,3.33 -0.5,5 -0.068,1.163 -0.106,2.339 0,3.5 0.062,0.684 0.159,1.404 0.5,2 0.35,0.613 0.925,1.089 1.5,1.5 0.606,0.433 1.303,0.739 2,1 0.643,0.241 1.369,0.77 2,0.5 0.765,-0.328 1.096,-1.272 1.5,-2 0.435,-0.784 0.716,-1.649 1,-2.5 0.217,-0.651 0.351,-1.33 0.5,-2 0.184,-0.829 0.371,-1.661 0.5,-2.5 0.204,-1.327 0.397,-2.662 0.5,-4 0.064,-0.83 0,-1.667 0,-2.5 0,-0.666 0.074,-1.338 0,-2 -0.094,-0.844 -0.309,-1.673 -0.5,-2.5 -0.309,-1.338 -0.796,-3.693 -1,-4 -0.189,-0.283 -0.127,1.677 0,2.5 0.209,1.357 0.543,2.705 1,4 0.546,1.546 1.223,3.056 2,4.5 0.395,0.733 1,1.334 1.5,2 0.5,0.666 0.911,1.411 1.5,2 0.589,0.589 1.294,1.059 2,1.5 0.631,0.395 1.261,0.908 2,1 0.681,0.085 1.473,-0.061 2,-0.5 0.572,-0.477 1,-2 1,-2"
         style="stroke:#2c367b;stroke-width:1.99937;stroke-dasharray:none;stroke-opacity:1" /><path
         id="ID0.4428997919894755"
         fill="none"
         stroke="#ff00bf"
         stroke-width="2"
         stroke-linecap="round"
         d="m 333,48.5 c 0,0 1.633,10.423 3,15.5 0.342,1.269 0.5,-1.651 0.5,-2.5 0,-1.013 -0.454,-1.988 -0.5,-3 -0.121,-2.661 0,-5.336 0,-8 0,-0.666 -0.472,-1.764 0,-2 0.528,-0.264 1.473,0.473 2,1 0.686,0.686 1.098,1.616 1.5,2.5 0.436,0.959 0.595,2.028 1,3 0.43,1.031 0.819,2.115 1.5,3 1.005,1.306 2.046,2.724 3.5,3.5 1.184,0.632 2.658,0.5 4,0.5 0.686,0 1.386,-0.193 2,-0.5 0.154,-0.077 0,-0.5 0,-0.5"
         style="stroke:#2c367b;stroke-width:1.99937;stroke-dasharray:none;stroke-opacity:1" /><path
         id="ID0.601697941776365"
         fill="none"
         stroke="#ff00bf"
         stroke-width="2"
         stroke-linecap="round"
         d="m 362,23 c 0,0 4.012,18.674 6,28 0.497,2.332 0.316,1.671 0.5,2.5 0.149,0.67 0.415,1.319 0.5,2 0.083,0.661 -0.083,1.339 0,2 0.085,0.681 0.303,1.342 0.5,2 0.303,1.009 0.793,1.967 1,3 0.131,0.653 0.305,2.102 0,2 -0.362,-0.121 -1.139,-1.599 -1.5,-2.5 -0.978,-2.444 -1.478,-5.074 -2.5,-7.5 -0.323,-0.767 -0.823,-1.516 -1.5,-2 -0.559,-0.399 -1.357,-0.741 -2,-0.5 -0.882,0.331 -1.501,1.201 -2,2 -0.364,0.582 -0.5,1.314 -0.5,2 0,2.171 -0.516,4.581 0.5,6.5 0.697,1.316 2.587,1.529 4,2 0.632,0.211 1.422,0.33 2,0 0.723,-0.413 1.162,-1.239 1.5,-2 0.345,-0.776 0.256,-1.687 0.5,-2.5 0.258,-0.859 0.629,-1.684 1,-2.5 0.462,-1.017 1.5,-3 1.5,-3"
         style="stroke:#2c367b;stroke-width:1.99937;stroke-dasharray:none;stroke-opacity:1" /><path
         id="ID0.9089060332626104"
         fill="none"
         stroke="#ff00bf"
         stroke-width="2"
         stroke-linecap="round"
         d="m 379,48.5 c 0,0 -2.543,8.581 -3,13 -0.114,1.105 0.821,1.694 1.5,1.5 1.025,-0.293 1.819,-1.449 2,-2.5 0.68,-3.941 0.372,-11.83 0.5,-12 0.128,-0.17 0.45,6.699 1,10 0.138,0.825 0.573,1.39 1,2 0.746,1.065 1.538,2.125 2.5,3 0.888,0.808 1.987,1.355 3,2 0.819,0.521 1.57,1.221 2.5,1.5 0.797,0.239 1.668,0 2.5,0 0.832,0 1.727,0.309 2.5,0 0.309,-0.124 0,-1 0,-1"
         style="stroke:#2c367b;stroke-width:1.99937;stroke-dasharray:none;stroke-opacity:1" /></g></g><g
     id="g8"
     inkscape:label="Chaos Emerald"
     style="stroke-width:0.475642;stroke-dasharray:none"
     transform="matrix(1.1121816,0,0,1.1121816,-1.6331704,-3.1317028)"><path
       style="fill:#f83800;stroke:#ffffff;stroke-width:0.475642;stroke-linecap:butt;stroke-linejoin:miter;stroke-dasharray:none;stroke-opacity:1;fill-opacity:1"
       d="M 1.7831099,9.3778371 16.774441,22.387935 25.359784,6.5654246 21.455348,3.0652461 4.6115465,5.1705494 Z"
       id="path1"
       sodipodi:nodetypes="cccccc" /><path
       style="fill:none;stroke:#ffffff;stroke-width:0.475642;stroke-linecap:butt;stroke-linejoin:miter;stroke-dasharray:none;stroke-opacity:1"
       d="M 16.727743,22.333225 13.274262,4.0945486"
       id="path2"
       sodipodi:nodetypes="cc" /><path
       style="fill:none;stroke:#ffffff;stroke-width:0.475642;stroke-linecap:butt;stroke-linejoin:miter;stroke-dasharray:none;stroke-opacity:1"
       d="M 1.8298079,9.4518903 25.227703,6.6041105"
       id="path3"
       sodipodi:nodetypes="cc" /><path
       style="fill:none;stroke:#ffffff;stroke-width:0.475642;stroke-linecap:butt;stroke-linejoin:miter;stroke-dasharray:none;stroke-opacity:1"
       d="M 10.226886,4.4363208 9.0127359,8.4990566 16.624529,22.275"
       id="path4"
       sodipodi:nodetypes="ccc" /><path
       style="fill:none;stroke:#ffffff;stroke-width:0.475642;stroke-linecap:butt;stroke-linejoin:miter;stroke-dasharray:none;stroke-opacity:1"
       d="M 7.1915096,4.7632077 5.1834907,8.9660378 16.577831,22.181604"
       id="path5"
       sodipodi:nodetypes="cc" /><path
       style="fill:none;stroke:#ffffff;stroke-width:0.475642;stroke-linecap:butt;stroke-linejoin:miter;stroke-dasharray:none;stroke-opacity:1"
       d="M 16.577831,3.6424528 18.912736,7.1915096 16.764623,22.228302"
       id="path6"
       sodipodi:nodetypes="ccc" /><path
       style="fill:none;stroke:#ffffff;stroke-width:0.475642;stroke-linecap:butt;stroke-linejoin:miter;stroke-dasharray:none;stroke-opacity:1"
       d="m 19.519811,3.3155661 3.082076,3.735849 -5.790566,15.0834909"
       id="path7"
       sodipodi:nodetypes="cc" /></g></svg>
