<svg version="1.1" width="395.71484375" height="111.578125" viewBox="0.421875 0.921875 395.71484375 111.578125" xmlns="http://www.w3.org/2000/svg" xmlns:xlink="http://www.w3.org/1999/xlink">
  <!-- Exported by Scratch - http://scratch.mit.edu/ -->
  <path id="ID0.6602484751492739" fill="#FF00BF" stroke="#FF00BF" stroke-width="2" stroke-linecap="round" d="M 51 25.5 C 48.188 23.926 45.698 18.773 43 14.5 C 42.326 13.432 41.743 13.078 41 12.5 C 40.234 11.904 39.349 11.471 38.5 11 C 37.849 10.638 37.151 10.362 36.5 10 C 35.651 9.529 34.849 8.971 34 8.5 C 33.349 8.138 32.666 7.833 32 7.5 C 31.334 7.167 30.666 6.833 30 6.5 C 29.334 6.167 28.706 5.735 28 5.5 C 27.195 5.232 26.329 5.184 25.5 5 C 24.83 4.851 24.182 4.576 23.5 4.5 C 22.673 4.408 21.833 4.5 21 4.5 C 20.167 4.5 19.333 4.5 18.5 4.5 C 17.834 4.5 17.166 4.5 16.5 4.5 C 15.834 4.5 15.146 4.338 14.5 4.5 C 13.778 4.681 13.18 5.198 12.5 5.5 C 11.681 5.864 10.76 6.025 10 6.5 C 9.401 6.874 9 7.501 8.5 8 C 8 8.499 7.536 9.04 7 9.5 C 6.368 10.042 5.548 10.373 5 11 C 4.361 11.731 3.971 12.651 3.5 13.5 C 3.138 14.151 2.777 14.809 2.5 15.5 C 2.109 16.478 1.66 17.459 1.5 18.5 C 1.323 19.652 1.5 20.834 1.5 22 C 1.5 22.999 1.417 24.004 1.5 25 C 1.584 26.009 1.68 27.039 2 28 C 2.353 29.06 3 30.001 3.5 31 C 4 31.999 4.437 33.035 5 34 C 5.605 35.037 6.263 36.052 7 37 C 7.434 37.558 8 38 8.5 38.5 C 9.332 39.333 10.096 40.246 11 41 C 12.1 41.917 13.382 42.605 14.5 43.5 C 15.052 43.941 15.472 44.531 16 45 C 16.972 45.864 18.028 46.636 19 47.5 C 19.528 47.969 20.001 48.5 20.5 49 C 20.999 49.5 21.472 50.031 22 50.5 C 22.972 51.364 24.028 52.136 25 53 C 25.528 53.469 26.001 54 26.5 54.5 C 27.333 55.333 28.167 56.167 29 57 C 29.666 57.666 30.334 58.334 31 59 C 31.499 59.5 32.001 60 32.5 60.5 C 33.166 61.166 33.791 61.88 34.5 62.5 C 35.127 63.048 35.873 63.452 36.5 64 C 37.209 64.62 37.834 65.334 38.5 66 C 39.166 66.666 39.791 67.38 40.5 68 C 41.127 68.548 41.873 68.952 42.5 69.5 C 43.209 70.12 43.834 70.834 44.5 71.5 C 44.999 72 45.501 72.5 46 73 C 46.666 73.666 47.291 74.38 48 75 C 48.627 75.548 49.343 75.989 50 76.5 C 50.842 77.155 51.658 77.845 52.5 78.5 C 53.157 79.011 53.834 79.5 54.5 80 C 55.166 80.5 55.834 81 56.5 81.5 C 57.166 82 57.868 82.458 58.5 83 C 59.036 83.46 59.501 84 60 84.5 C 60.499 85 61.001 85.5 61.5 86 C 61.999 86.5 62.501 87 63 87.5 C 63.499 88 63.891 89.122 64.5 89 C 65.141 88.872 65.198 87.68 65.5 87 C 65.864 86.181 66.167 85.333 66.5 84.5 C 66.833 83.667 67.129 82.816 67.5 82 C 67.962 80.983 68.501 79.999 69 79 C 69.333 78.334 69.698 77.68 70 77 C 70.364 76.181 70.565 75.284 71 74.5 C 71.404 73.772 72.001 73.166 72.5 72.5 C 72.999 71.834 73.501 71.166 74 70.5 C 74.499 69.834 75.038 69.193 75.5 68.5 C 76.039 67.692 76.535 66.852 77 66 C 77.535 65.019 78.038 64.017 78.5 63 C 78.871 62.184 79.099 61.302 79.5 60.5 C 79.934 59.632 80.529 58.849 81 58 C 81.362 57.349 81.638 56.651 82 56 C 82.471 55.151 83.029 54.349 83.5 53.5 C 83.862 52.849 84.198 52.18 84.5 51.5 C 84.864 50.681 85.099 49.802 85.5 49 C 85.934 48.132 86.461 47.308 87 46.5 C 87.462 45.807 88.059 45.206 88.5 44.5 C 88.895 43.869 89.167 43.166 89.5 42.5 C 89.833 41.834 90.138 41.151 90.5 40.5 C 90.971 39.651 91.529 38.849 92 38 C 92.362 37.349 92.739 36.697 93 36 C 93.241 35.357 93.259 34.643 93.5 34 C 93.761 33.303 94.167 32.666 94.5 32 C 94.833 31.334 95.265 30.706 95.5 30 C 95.768 29.195 95.732 28.305 96 27.5 C 96.235 26.794 96.819 26.222 97 25.5 C 97.162 24.854 96.917 24.161 97 23.5 C 97.085 22.819 97.351 22.17 97.5 21.5 C 97.684 20.671 97.916 19.845 98 19 C 98.083 18.172 98 17.333 98 16.5 C 98 15.834 98 15.166 98 14.5 C 98 13.834 98 13.166 98 12.5 C 98 11.501 98 10.499 98 9.5 C 98 8.834 98.162 8.146 98 7.5 C 97.819 6.778 97.433 6.106 97 5.5 C 96.589 4.925 96.132 4.316 95.5 4 C 94.741 3.62 93.813 3.744 93 3.5 C 92.141 3.242 91.375 2.695 90.5 2.5 C 89.85 2.356 89.162 2.574 88.5 2.5 C 87.656 2.406 86.844 2.094 86 2 C 85.338 1.926 84.666 2 84 2 C 83.334 2 82.666 2 82 2 C 81.168 2 80.313 1.819 79.5 2 C 78.773 2.162 78.206 2.765 77.5 3 C 76.695 3.268 75.776 3.155 75 3.5 C 74.239 3.838 73.666 4.501 73 5 C 72.334 5.499 71.589 5.911 71 6.5 C 70.411 7.089 70.042 7.868 69.5 8.5 C 69.04 9.036 68.499 9.501 68 10 C 67.501 10.499 66.999 11 66.5 11.5 C 66.001 12 65.46 12.464 65 13 C 64.458 13.632 63.999 14.334 63.5 15 C 63.001 15.666 62.499 16.334 62 17 C 61.501 17.666 61.042 18.368 60.5 19 C 60.04 19.536 59.499 20 59 20.5 C 58.501 21 57.999 21.5 57.5 22 C 57.001 22.5 56.499 23 56 23.5 C 55.501 24 54.999 24.5 54.5 25 C 54.001 25.5 53.613 26.15 53 26.5 C 52.404 26.841 51.589 26.647 51 27 C 50.681 27.192 51.096 28.931 50.5 28 Z "/>
  <g id="ID0.8865895136259496">
    <path id="ID0.1407756246626377" fill="none" stroke="#FF00BF" stroke-width="2" stroke-linecap="round" d="M 107 14.5 C 107 14.5 107.904 23.849 108.5 28.5 C 108.737 30.346 109.269 32.153 109.5 34 C 109.603 34.826 109.417 35.672 109.5 36.5 C 109.584 37.345 109.833 38.167 110 39 C 110.167 39.833 110.256 40.687 110.5 41.5 C 110.758 42.359 111.305 43.125 111.5 44 C 111.644 44.65 111.384 45.344 111.5 46 C 111.886 48.188 112.635 50.309 113 52.5 C 113.137 53.321 112.908 54.173 113 55 C 113.076 55.682 113.356 56.329 113.5 57 C 113.856 58.66 114.144 60.34 114.5 62 C 114.644 62.671 114.915 63.319 115 64 C 115.083 64.661 114.917 65.339 115 66 C 115.251 68.01 115.798 69.984 116 72 C 116.133 73.325 116 75.74 116 76 C 116 76.26 116 73.5 116 73.5 "/>
    <path id="ID0.12032430293038487" fill="none" stroke="#FF00BF" stroke-width="2" stroke-linecap="round" d="M 106 16 C 106 16 112.565 10.476 116.5 9 C 118.243 8.346 120.272 9.309 122 10 C 122.875 10.35 123.38 11.291 124 12 C 124.548 12.627 125.059 13.294 125.5 14 C 125.895 14.631 126.281 15.288 126.5 16 C 126.951 17.467 127.283 18.98 127.5 20.5 C 127.618 21.324 127.5 22.167 127.5 23 C 127.5 23.833 127.592 24.673 127.5 25.5 C 127.424 26.182 127.264 26.866 127 27.5 C 126.427 28.875 125.8 30.244 125 31.5 C 124.621 32.096 123.96 32.464 123.5 33 C 122.958 33.632 122.542 34.368 122 35 C 121.54 35.536 121.075 36.089 120.5 36.5 C 119.894 36.933 119.166 37.167 118.5 37.5 C 117.834 37.833 117.222 38.319 116.5 38.5 C 115.854 38.662 115.164 38.445 114.5 38.5 C 113.162 38.611 110.5 39 110.5 39 "/>
    <path id="ID0.2844141749665141" fill="none" stroke="#FF00BF" stroke-width="2" stroke-linecap="round" d="M 130.5 40 C 130.5 40 132.162 50.416 133.5 55.5 C 134.666 59.93 136.265 64.26 138 68.5 C 138.434 69.56 138.25 67.428 138 66.5 C 137.001 62.788 135.68 59.158 134.5 55.5 C 134.015 53.997 133.204 52.566 133 51 C 132.699 48.689 132.617 46.299 133 44 C 133.295 42.231 134.242 40.625 135 39 C 135.411 38.12 136 37.333 136.5 36.5 C 137 35.667 137.192 34.539 138 34 C 139.314 33.124 140.942 32.76 142.5 32.5 C 143.978 32.254 145.519 32.272 147 32.5 C 147.736 32.613 148.419 33.035 149 33.5 C 149.291 33.733 149.5 34.5 149.5 34.5 "/>
    <path id="ID0.10640219878405333" fill="none" stroke="#FF00BF" stroke-width="2" stroke-linecap="round" d="M 156.5 40 C 156.5 40 158.042 48.032 159 52 C 159.239 52.992 159.636 53.681 160 54.5 C 160.302 55.18 160.698 55.82 161 56.5 C 161.364 57.319 161.525 58.24 162 59 C 162.374 59.599 163.04 59.964 163.5 60.5 C 164.042 61.132 164.373 61.952 165 62.5 C 165.731 63.139 166.651 63.529 167.5 64 C 168.151 64.362 168.85 65.26 169.5 65 C 170.1 64.76 169.833 63.666 170 63 C 170.042 62.833 170 63 170 63 "/>
    <path id="ID0.5316684176214039" fill="none" stroke="#FF00BF" stroke-width="2" stroke-linecap="round" d="M 158.5 27.5 L 158.8 27.8 "/>
    <path id="ID0.4762913747690618" fill="none" stroke="#FF00BF" stroke-width="2" stroke-linecap="round" d="M 178.5 32.5 C 178.5 32.5 183.351 46.784 185.5 54 C 186.037 55.804 185.5 55.334 185.5 56 C 185.5 58.498 185.825 62.039 185.5 63.5 C 185.352 64.167 184.66 61.541 184.5 60.5 C 184.323 59.348 184.5 58.166 184.5 57 C 184.5 55.002 184.426 52.997 184.5 51 C 184.593 48.499 184.751 45.991 185 43.5 C 185.084 42.655 185.256 41.813 185.5 41 C 185.758 40.141 186.099 39.302 186.5 38.5 C 186.934 37.632 187.263 36.632 188 36 C 188.521 35.553 189.334 35.333 190 35.5 C 190.808 35.702 191.473 36.356 192 37 C 192.995 38.216 193.721 39.636 194.5 41 C 195.054 41.97 195.5 43.001 196 44 C 196.5 44.999 197.038 45.983 197.5 47 C 197.871 47.816 198.129 48.684 198.5 49.5 C 198.962 50.517 199.465 51.519 200 52.5 C 200.465 53.352 200.917 54.223 201.5 55 C 201.924 55.565 202.54 55.964 203 56.5 C 203.542 57.132 203.71 58.237 204.5 58.5 C 205.07 58.69 206 57.5 206 57.5 "/>
    <path id="ID0.3363050646148622" fill="none" stroke="#FF00BF" stroke-width="2" stroke-linecap="round" d="M 217.5 36 C 217.5 36 213.134 40.049 211.5 42.5 C 211.038 43.193 211.5 44.167 211.5 45 C 211.5 45.833 211.425 46.671 211.5 47.5 C 211.592 48.509 211.654 49.548 212 50.5 C 212.332 51.412 212.961 52.192 213.5 53 C 213.962 53.693 214.458 54.368 215 55 C 215.46 55.536 215.929 56.085 216.5 56.5 C 217.77 57.424 218.976 58.619 220.5 59 C 221.222 59.181 221.973 58.527 222.5 58 C 222.735 57.765 222.5 57 222.5 57 "/>
    <path id="ID0.807536203879863" fill="none" stroke="#FF00BF" stroke-width="2" stroke-linecap="round" d="M 226 47.5 C 226 47.5 232.132 40.825 234.5 37 C 235.092 36.044 233.112 36.738 232.5 37 C 231.851 37.278 231.411 37.925 231 38.5 C 230.567 39.106 230.261 39.803 230 40.5 C 229.759 41.143 229.613 41.823 229.5 42.5 C 229.279 43.824 229 45.158 229 46.5 C 229 47.186 229.193 47.886 229.5 48.5 C 229.872 49.245 230.5 49.834 231 50.5 C 231.5 51.166 231.868 51.958 232.5 52.5 C 233.065 52.985 233.894 53.067 234.5 53.5 C 235.075 53.911 235.387 54.65 236 55 C 236.596 55.341 237.334 55.333 238 55.5 C 238.666 55.667 239.429 56.381 240 56 C 240.746 55.503 241 53.5 241 53.5 "/>
    <path id="ID0.8316874853335321" fill="none" stroke="#FF00BF" stroke-width="2" stroke-linecap="round" d="M 249 35.5 C 249 35.5 246.849 42.464 246 46 C 245.788 46.884 245.631 47.446 246 48 C 246.413 48.62 247.349 48.638 248 49 C 248.849 49.471 249.692 49.961 250.5 50.5 C 251.193 50.962 251.911 51.411 252.5 52 C 253.089 52.589 253.596 53.272 254 54 C 254.435 54.784 254.805 55.625 255 56.5 C 255.144 57.15 255 57.834 255 58.5 C 255 59.333 255.263 60.21 255 61 C 254.737 61.79 254.233 62.605 253.5 63 C 251.969 63.824 250.2 64.136 248.5 64.5 C 247.849 64.64 246.83 65.05 246.5 64.5 C 246.08 63.8 247 62 247 62 "/>
    <path id="ID0.8267288911156356" fill="none" stroke="#FF00BF" stroke-width="2" stroke-linecap="round" d="M 261.5 40 C 261.5 40 259.846 47.306 260 51 C 260.038 51.923 261.334 51.667 262 52 C 262.666 52.333 263.349 52.638 264 53 C 264.849 53.471 265.651 54.029 266.5 54.5 C 267.151 54.862 267.904 55.053 268.5 55.5 C 269.253 56.065 269.88 56.791 270.5 57.5 C 271.048 58.127 271.648 58.746 272 59.5 C 272.824 61.266 273.527 63.109 274 65 C 274.202 65.808 274.083 66.672 274 67.5 C 273.916 68.345 274.009 69.321 273.5 70 C 272.917 70.777 271.921 71.193 271 71.5 C 270.368 71.711 269.666 71.5 269 71.5 C 268.334 71.5 267.653 71.631 267 71.5 C 266.769 71.454 266.5 71 266.5 71 "/>
    <path id="ID0.3660931037738919" fill="none" stroke="#FF00BF" stroke-width="2" stroke-linecap="round" d="M 294.5 74 C 294.5 74 294.15 76.4 294 76.5 C 293.8 76.55 293.6 75.15 293.5 74.5 C 293.3 73.65 293.2 72.8 293 72 C 292.35 69.8 291.55 67.65 291 65.5 C 289.55 60.15 288.5 54.75 287 49.5 C 286.5 47.9 285.6 46.5 285 45 C 284.6 44.15 284.3 43.3 284 42.5 C 283.65 41.65 283.3 40.8 283 40 C 282.65 39.15 282.3 38.3 282 37.5 C 281.6 36.5 281.35 35.45 281 34.5 C 280.65 33.65 280.3 32.8 280 32 C 279.3 30.3 278.45 28.7 278 27 C 276.65 22.35 274.5 13 274.5 13 C 274.5 14 281.985 10.147 286 9 C 287.004 8.713 287.716 9.565 288.5 10 C 289.228 10.404 289.911 10.911 290.5 11.5 C 291.089 12.089 291.458 12.868 292 13.5 C 292.46 14.036 293.076 14.435 293.5 15 C 294.083 15.777 294.566 16.632 295 17.5 C 295.401 18.302 295.525 19.24 296 20 C 296.374 20.599 297.15 20.887 297.5 21.5 C 297.841 22.096 297.759 22.857 298 23.5 C 298.261 24.197 298.739 24.803 299 25.5 C 299.241 26.143 299.457 26.815 299.5 27.5 C 299.625 29.494 299.5 31.502 299.5 33.5 C 299.5 34.166 299.662 34.854 299.5 35.5 C 299.319 36.222 298.998 36.947 298.5 37.5 C 297.473 38.641 296.44 39.969 295 40.5 C 293.119 41.193 291.005 41 289 41 C 288.314 41 287.683 40.568 287 40.5 C 286.006 40.401 284 40.5 284 40.5 "/>
    <path id="ID0.624334723688662" fill="none" stroke="#FF00BF" stroke-width="2" stroke-linecap="round" d="M 315.5 45 C 315.5 45 311.306 49.86 309.5 52.5 C 309.048 53.16 309.149 53.83 309 54.5 C 308.816 55.329 308.612 56.158 308.5 57 C 308.279 58.659 308.098 60.33 308 62 C 307.932 63.163 307.894 64.339 308 65.5 C 308.062 66.184 308.159 66.904 308.5 67.5 C 308.85 68.113 309.425 68.589 310 69 C 310.606 69.433 311.303 69.739 312 70 C 312.643 70.241 313.369 70.77 314 70.5 C 314.765 70.172 315.096 69.228 315.5 68.5 C 315.935 67.716 316.216 66.851 316.5 66 C 316.717 65.349 316.851 64.67 317 64 C 317.184 63.171 317.371 62.339 317.5 61.5 C 317.704 60.173 317.897 58.838 318 57.5 C 318.064 56.67 318 55.833 318 55 C 318 54.334 318.074 53.662 318 53 C 317.906 52.156 317.691 51.327 317.5 50.5 C 317.191 49.162 316.704 46.807 316.5 46.5 C 316.311 46.217 316.373 48.177 316.5 49 C 316.709 50.357 317.043 51.705 317.5 53 C 318.046 54.546 318.723 56.056 319.5 57.5 C 319.895 58.233 320.5 58.834 321 59.5 C 321.5 60.166 321.911 60.911 322.5 61.5 C 323.089 62.089 323.794 62.559 324.5 63 C 325.131 63.395 325.761 63.908 326.5 64 C 327.181 64.085 327.973 63.939 328.5 63.5 C 329.072 63.023 329.5 61.5 329.5 61.5 "/>
    <path id="ID0.4428997919894755" fill="none" stroke="#FF00BF" stroke-width="2" stroke-linecap="round" d="M 333 48.5 C 333 48.5 334.633 58.923 336 64 C 336.342 65.269 336.5 62.349 336.5 61.5 C 336.5 60.487 336.046 59.512 336 58.5 C 335.879 55.839 336 53.164 336 50.5 C 336 49.834 335.528 48.736 336 48.5 C 336.528 48.236 337.473 48.973 338 49.5 C 338.686 50.186 339.098 51.116 339.5 52 C 339.936 52.959 340.095 54.028 340.5 55 C 340.93 56.031 341.319 57.115 342 58 C 343.005 59.306 344.046 60.724 345.5 61.5 C 346.684 62.132 348.158 62 349.5 62 C 350.186 62 350.886 61.807 351.5 61.5 C 351.654 61.423 351.5 61 351.5 61 "/>
    <path id="ID0.601697941776365" fill="none" stroke="#FF00BF" stroke-width="2" stroke-linecap="round" d="M 362 23 C 362 23 366.012 41.674 368 51 C 368.497 53.332 368.316 52.671 368.5 53.5 C 368.649 54.17 368.915 54.819 369 55.5 C 369.083 56.161 368.917 56.839 369 57.5 C 369.085 58.181 369.303 58.842 369.5 59.5 C 369.803 60.509 370.293 61.467 370.5 62.5 C 370.631 63.153 370.805 64.602 370.5 64.5 C 370.138 64.379 369.361 62.901 369 62 C 368.022 59.556 367.522 56.926 366.5 54.5 C 366.177 53.733 365.677 52.984 365 52.5 C 364.441 52.101 363.643 51.759 363 52 C 362.118 52.331 361.499 53.201 361 54 C 360.636 54.582 360.5 55.314 360.5 56 C 360.5 58.171 359.984 60.581 361 62.5 C 361.697 63.816 363.587 64.029 365 64.5 C 365.632 64.711 366.422 64.83 367 64.5 C 367.723 64.087 368.162 63.261 368.5 62.5 C 368.845 61.724 368.756 60.813 369 60 C 369.258 59.141 369.629 58.316 370 57.5 C 370.462 56.483 371.5 54.5 371.5 54.5 "/>
    <path id="ID0.9089060332626104" fill="none" stroke="#FF00BF" stroke-width="2" stroke-linecap="round" d="M 379 48.5 C 379 48.5 376.457 57.081 376 61.5 C 375.886 62.605 376.821 63.194 377.5 63 C 378.525 62.707 379.319 61.551 379.5 60.5 C 380.18 56.559 379.872 48.67 380 48.5 C 380.128 48.33 380.45 55.199 381 58.5 C 381.138 59.325 381.573 59.89 382 60.5 C 382.746 61.565 383.538 62.625 384.5 63.5 C 385.388 64.308 386.487 64.855 387.5 65.5 C 388.319 66.021 389.07 66.721 390 67 C 390.797 67.239 391.668 67 392.5 67 C 393.332 67 394.227 67.309 395 67 C 395.309 66.876 395 66 395 66 "/>
    <path id="ID0.139086551964283" fill="none" stroke="#FF00BF" stroke-width="2" stroke-linecap="round" d="M 227.5 76.5 C 227.5 76.5 231.7 93.799 233.5 102.5 C 233.95 104.675 233.5 104.501 233.5 105.5 C 233.5 106.333 233.5 107.167 233.5 108 C 233.5 108.666 233.238 109.388 233.5 110 C 233.778 110.649 234.294 111.5 235 111.5 C 237.71 111.5 240.371 110.657 243 110 C 244.38 109.655 245.687 109.047 247 108.5 C 247.687 108.214 248.278 107.681 249 107.5 C 249.646 107.338 250.354 107.662 251 107.5 C 251.162 107.46 251 107 251 107 "/>
    <path id="ID0.862556163687259" fill="none" stroke="#FF00BF" stroke-width="2" stroke-linecap="round" d="M 258.5 94.5 C 261.983 99.975 262.95 103.571 265 106.5 C 265.513 107.232 266.314 107 267 107 C 267.686 107 268.473 106.939 269 106.5 C 269.572 106.023 269.929 105.241 270 104.5 C 270.268 101.682 270.135 98.827 270 96 C 269.966 95.293 269.741 94.643 269.5 94 C 269.239 93.303 268.895 92.631 268.5 92 C 268.059 91.294 267.644 90.527 267 90 C 265.784 89.005 264.45 88.104 263 87.5 C 262.385 87.244 261.666 87.5 261 87.5 C 260.334 87.5 259.646 87.338 259 87.5 C 258.278 87.681 257.433 87.894 257 88.5 C 256.507 89.191 256.684 90.171 256.5 91 C 256.351 91.67 256.076 92.318 256 93 C 255.908 93.827 255.819 94.687 256 95.5 C 256.162 96.227 256.38 97.087 257 97.5 C 257.554 97.869 258.343 97.609 259 97.5 C 259.367 97.439 259.504 96.256 260 97 Z "/>
    <path id="ID0.6796602890826762" fill="none" stroke="#FF00BF" stroke-width="2" stroke-linecap="round" d="M 281 87.5 C 281 87.5 288.257 99.466 292.5 105 C 293.561 106.383 292.425 103.329 292.5 102.5 C 292.592 101.491 292.899 100.508 293 99.5 C 293.066 98.837 292.934 98.163 293 97.5 C 293.101 96.492 293.334 95.499 293.5 94.5 C 293.666 93.501 293.899 92.508 294 91.5 C 294.066 90.837 293.606 89.763 294 89.5 C 294.356 89.263 295.5 90.5 295.5 90.5 "/>
    <path id="ID0.4795853463001549" fill="none" stroke="#FF00BF" stroke-width="2" stroke-linecap="round" d="M 300.5 95 C 300.5 95 308.815 89.725 312.5 86.5 C 313.421 85.694 312.762 85.112 312.5 84.5 C 312.222 83.851 311.649 83.278 311 83 C 310.388 82.738 309.666 83 309 83 C 308.334 83 307.632 82.789 307 83 C 306.079 83.307 305.231 83.861 304.5 84.5 C 303.873 85.048 303.338 85.739 303 86.5 C 302.655 87.276 302.577 88.154 302.5 89 C 302.41 89.995 302.41 91.005 302.5 92 C 302.577 92.846 302.655 93.724 303 94.5 C 303.338 95.261 304.038 95.807 304.5 96.5 C 305.039 97.308 305.404 98.234 306 99 C 306.578 99.743 307.257 100.422 308 101 C 308.766 101.596 309.651 102.029 310.5 102.5 C 311.151 102.862 311.794 103.265 312.5 103.5 C 313.305 103.768 314.156 103.906 315 104 C 315.662 104.074 316.35 104.144 317 104 C 317.875 103.805 318.866 103.634 319.5 103 C 319.985 102.515 320 101 320 101 "/>
    <path id="ID0.21685663145035505" fill="none" stroke="#FF00BF" stroke-width="2" stroke-linecap="round" d="M 323.5 82.5 C 323.5 82.5 325.708 93.201 327 98.5 C 327.374 100.035 328.296 102.932 328.5 103 C 328.704 103.068 328.5 100.332 328.5 99 C 328.5 95.171 328.5 91.329 328.5 87.5 C 328.5 86.501 328.304 85.48 328.5 84.5 C 328.646 83.77 328.783 82.699 329.5 82.5 C 332.072 81.786 334.833 81.884 337.5 82 C 338.711 82.053 341 83 341 83 "/>
  </g>
</svg>