<?xml version="1.0" encoding="UTF-8" standalone="no"?>
<svg
   xmlns:dc="http://purl.org/dc/elements/1.1/"
   xmlns:cc="http://creativecommons.org/ns#"
   xmlns:rdf="http://www.w3.org/1999/02/22-rdf-syntax-ns#"
   xmlns:svg="http://www.w3.org/2000/svg"
   xmlns="http://www.w3.org/2000/svg"
   xmlns:sodipodi="http://sodipodi.sourceforge.net/DTD/sodipodi-0.dtd"
   xmlns:inkscape="http://www.inkscape.org/namespaces/inkscape"
   id="wds-brand-fandom-logomark"
   viewBox="0 0 174 242"
   version="1.1"
   sodipodi:docname="fandom.svg"
   inkscape:version="0.92.4 (5da689c313, 2019-01-14)">
  <metadata
     id="metadata11">
    <rdf:RDF>
      <cc:Work
         rdf:about="">
        <dc:format>image/svg+xml</dc:format>
        <dc:type
           rdf:resource="http://purl.org/dc/dcmitype/StillImage" />
        <dc:title></dc:title>
      </cc:Work>
    </rdf:RDF>
  </metadata>
  <defs
     id="defs9" />
  <sodipodi:namedview
     pagecolor="#ffffff"
     bordercolor="#666666"
     borderopacity="1"
     objecttolerance="10"
     gridtolerance="10"
     guidetolerance="10"
     inkscape:pageopacity="0"
     inkscape:pageshadow="2"
     inkscape:window-width="1920"
     inkscape:window-height="1001"
     id="namedview7"
     showgrid="false"
     inkscape:zoom="1.9504132"
     inkscape:cx="28.871102"
     inkscape:cy="167.96034"
     inkscape:window-x="-9"
     inkscape:window-y="-9"
     inkscape:window-maximized="1"
     inkscape:current-layer="wds-brand-fandom-logomark" />
  <path
     d="M 47.265625 0.015625 C 46.631453 -0.014890625 45.995297 0.09459375 45.404297 0.33984375 C 44.616297 0.66684375 43.944703 1.2196875 43.470703 1.9296875 C 42.996703 2.6396875 42.742188 3.4760781 42.742188 4.3300781 L 42.742188 102.60547 L 7.3652344 67.220703 C 6.7612344 66.616703 5.9912969 66.205063 5.1542969 66.039062 C 4.3172969 65.873063 3.4501094 65.960109 2.6621094 66.287109 C 1.8731094 66.614109 1.2005625 67.166953 0.7265625 67.876953 C 0.2525625 68.586953 7.4014868e-17 69.422344 0 70.277344 L 0 171.76367 C -0.003 174.93567 0.61903125 178.07586 1.8320312 181.00586 C 3.0460312 183.93486 4.8263125 186.59594 7.0703125 188.83594 L 53.107422 234.93555 C 57.635422 239.46555 63.773781 242.01253 70.175781 242.01953 L 103.85547 242.01953 C 110.25547 242.01653 116.39197 239.47331 120.91797 234.94531 L 166.94531 188.8457 C 169.18431 186.6037 170.95892 183.94267 172.16992 181.01367 C 173.37992 178.08367 174.002 174.94344 174 171.77344 L 174 135.24023 C 174.002 132.06723 173.37902 128.92614 172.16602 125.99414 C 170.95402 123.06214 169.17755 120.3983 166.93555 118.1543 L 50.107422 1.2734375 C 49.503422 0.6704375 48.735437 0.25975 47.898438 0.09375 C 47.689188 0.05225 47.477016 0.025796875 47.265625 0.015625 z M 110.73438 126.14844 C 111.68537 126.14844 112.62881 126.33617 113.50781 126.70117 C 114.38681 127.06617 115.18347 127.60039 115.85547 128.27539 L 129.17383 141.60352 C 129.84683 142.27452 130.38014 143.07317 130.74414 143.95117 C 131.10814 144.82817 131.29688 145.7707 131.29688 146.7207 L 131.29688 160.90039 C 131.29788 162.81539 130.54045 164.65472 129.18945 166.01172 L 92.078125 203.3125 C 91.406125 203.9895 90.606609 204.52753 89.724609 204.89453 C 88.844609 205.26053 87.899312 205.44922 86.945312 205.44922 C 85.991313 205.44922 85.044062 205.26053 84.164062 204.89453 C 83.282062 204.52753 82.483547 203.9895 81.810547 203.3125 L 44.820312 166.01172 C 43.468313 164.66072 42.706125 162.82802 42.703125 160.91602 L 42.703125 146.72461 C 42.703125 145.77361 42.893813 144.83308 43.257812 143.95508 C 43.623812 143.07708 44.156078 142.28037 44.830078 141.60938 L 58.148438 128.28125 C 58.820437 127.60625 59.618047 127.07203 60.498047 126.70703 C 61.377047 126.34203 62.317531 126.1543 63.269531 126.1543 C 64.221531 126.1543 65.163969 126.34203 66.042969 126.70703 C 66.921969 127.07203 67.719578 127.60625 68.392578 128.28125 L 87.017578 146.92578 L 105.61328 128.27539 C 106.28528 127.60039 107.08389 127.06617 107.96289 126.70117 C 108.84189 126.33617 109.78238 126.14844 110.73438 126.14844 z "
     id="path2"
     style="fill:#ffffff;fill-opacity:1" />
</svg>
