<?xml version="1.0" encoding="UTF-8" standalone="no"?>
<svg
   xmlns:dc="http://purl.org/dc/elements/1.1/"
   xmlns:cc="http://creativecommons.org/ns#"
   xmlns:rdf="http://www.w3.org/1999/02/22-rdf-syntax-ns#"
   xmlns:svg="http://www.w3.org/2000/svg"
   xmlns="http://www.w3.org/2000/svg"
   xmlns:sodipodi="http://sodipodi.sourceforge.net/DTD/sodipodi-0.dtd"
   xmlns:inkscape="http://www.inkscape.org/namespaces/inkscape"
   role="img"
   viewBox="0 0 17.143082 24.000023"
   version="1.1"
   id="svg4"
   sodipodi:docname="scratch.svg"
   width="17.143082"
   height="24.000023"
   inkscape:version="0.92.4 (5da689c313, 2019-01-14)">
  <metadata
     id="metadata10">
    <rdf:RDF>
      <cc:Work
         rdf:about="">
        <dc:format>image/svg+xml</dc:format>
        <dc:type
           rdf:resource="http://purl.org/dc/dcmitype/StillImage" />
        <dc:title></dc:title>
      </cc:Work>
    </rdf:RDF>
  </metadata>
  <defs
     id="defs8" />
  <sodipodi:namedview
     pagecolor="#ffffff"
     bordercolor="#666666"
     borderopacity="1"
     objecttolerance="10"
     gridtolerance="10"
     guidetolerance="10"
     inkscape:pageopacity="0"
     inkscape:pageshadow="2"
     inkscape:window-width="1920"
     inkscape:window-height="1001"
     id="namedview6"
     showgrid="false"
     fit-margin-top="0"
     fit-margin-left="0"
     fit-margin-right="0"
     fit-margin-bottom="0"
     inkscape:zoom="19.666667"
     inkscape:cx="15.946477"
     inkscape:cy="15.029169"
     inkscape:window-x="-9"
     inkscape:window-y="-9"
     inkscape:window-maximized="1"
     inkscape:current-layer="svg4" />
  <path
     d="m 7.9774867,11.312 c -0.78,-0.123 -1.198,-0.654 -0.99,-2.295 l 0.023,-0.198 c 0.175,-1.426 0.321,-1.743 0.996,-1.706 0.198,0.013 0.426,0.14 0.654,0.33 0.211,0.247 0.68,0.568 0.945,1.204 0.19,0.466 0.254,0.77 0.281,1.098 l 0.042,0.402 v -0.002 a 0.68,0.68 0 0 0 1.3420003,-0.007 c 0.008,-0.044 0.176,-4.365 0.176,-4.436 0,-0.38 -0.302,-0.69 -0.68,-0.696 a 0.685,0.685 0 0 0 -0.682,0.688 c 0,0.009 -10e-4,0.605 -0.014,1.206 C 9.5344867,6.308 8.8474867,5.777 8.0764867,5.73 c -2.058,-0.11 -2.283,1.811 -2.419,2.918 l -0.02,0.196 c -0.278,2.189 0.441,3.569 2.13,3.837 1.838,0.293 3.0630003,0.72 3.0740003,1.868 0.007,0.446 -0.224,0.903 -0.627,1.254 a 2.163,2.163 0 0 1 -1.7490003,0.507 3.233,3.233 0 0 1 -0.539,-0.141 c -0.24,-0.136 -0.847,-0.51 -1.154,-0.942 -0.26,-0.364 -0.35,-0.937 -0.378,-1.3 0.004,-0.163 0.005,-0.27 0.005,-0.283 a 0.69,0.69 0 0 0 -0.669,-0.703 0.689,0.689 0 0 0 -0.696,0.682 c 0,0.013 -0.017,1.367 -0.066,2.183 -0.07,1.313 0,2.426 0,2.474 0.028,0.382 0.35,0.67 0.727,0.644 a 0.681,0.681 0 0 0 0.635,-0.733 c 0,-0.006 -0.033,-0.545 -0.029,-1.29 a 5.21,5.21 0 0 0 1.938,0.773 3.451,3.451 0 0 0 2.8560003,-0.82 c 0.713,-0.619 1.122,-1.464 1.11,-2.32 -0.024,-2.555 -2.8650003,-3.004 -4.2280003,-3.222 M 10.745487,0 A 5.51,5.51 0 0 0 8.0214867,0.723 h -0.112 c -2.637,0 -4.937,1.392 -6.15,3.728 -0.728,1.393 -0.89999997,2.75 -0.99899997,3.579 -0.012,0.089 -0.018,0.17 -0.028,0.262 -0.12,0.974 -0.123,1.904 -0.01,2.772 a 5.824,5.824 0 0 0 -0.625,2.529 v 0.016 a 58.919,58.919 0 0 1 -0.057,1.95 29.72,29.72 0 0 0 -0.008,2.94 l 0.013,0.209 C 0.26948673,21.676 2.7304867,24 5.6544867,24 a 5.516,5.516 0 0 0 3.463,-1.21 8.357,8.357 0 0 0 5.1950003,-2.08 c 1.826,-1.587 2.859,-3.845 2.83,-6.19 -0.013,-1.362 -0.346,-2.638 -0.978,-3.763 0.117,-1.273 0.221,-4.996 0.221,-5.03 0,-3.103 -2.484,-5.67 -5.539,-5.727 z m 0.056,2.675 c 1.642,0.03 2.978,1.412 2.978,3.081 0,0.038 -0.145,4.497 -0.215,4.883 a 3.152,3.152 0 0 1 -0.203,0.69 c 0.756,0.89 1.165,2 1.175,3.256 0.021,1.555 -0.681,3.076 -1.926,4.16 a 5.763,5.763 0 0 1 -3.8000003,1.444 5.986,5.986 0 0 1 -0.718,-0.048 3.386,3.386 0 0 1 -0.172,0.215 2.97,2.97 0 0 1 -2.264,1.038 c -1.573,0 -2.897,-1.255 -3.013,-2.856 l -0.008,-0.122 a 27.366,27.366 0 0 1 0.005,-2.662 c 0.039,-0.679 0.06,-1.831 0.062,-2.08 a 3.124,3.124 0 0 1 0.783,-2.025 c -0.237,-0.835 -0.312,-1.836 -0.167,-3.02 l 0.024,-0.212 c 0.083,-0.695 0.208,-1.72 0.72,-2.7 0.765,-1.473 2.168,-2.318 3.848,-2.318 a 4.568,4.568 0 0 1 0.824,0.07 c 0.546,-0.5 1.2700003,-0.81 2.0670003,-0.794 z"
     id="path2"
     inkscape:connector-curvature="0"
     style="fill:#ffffff;fill-opacity:1" />
</svg>
