<?xml version="1.0" encoding="UTF-8" standalone="no"?>
<svg
   xmlns:dc="http://purl.org/dc/elements/1.1/"
   xmlns:cc="http://creativecommons.org/ns#"
   xmlns:rdf="http://www.w3.org/1999/02/22-rdf-syntax-ns#"
   xmlns:svg="http://www.w3.org/2000/svg"
   xmlns="http://www.w3.org/2000/svg"
   xmlns:sodipodi="http://sodipodi.sourceforge.net/DTD/sodipodi-0.dtd"
   xmlns:inkscape="http://www.inkscape.org/namespaces/inkscape"
   viewBox="0 0 11.999977 8.9107351"
   version="1.1"
   id="svg4"
   sodipodi:docname="wattpad.svg"
   width="11.999977"
   height="8.9107351"
   inkscape:version="0.92.4 (5da689c313, 2019-01-14)">
  <metadata
     id="metadata10">
    <rdf:RDF>
      <cc:Work
         rdf:about="">
        <dc:format>image/svg+xml</dc:format>
        <dc:type
           rdf:resource="http://purl.org/dc/dcmitype/StillImage" />
        <dc:title></dc:title>
      </cc:Work>
    </rdf:RDF>
  </metadata>
  <defs
     id="defs8" />
  <sodipodi:namedview
     pagecolor="#ffffff"
     bordercolor="#666666"
     borderopacity="1"
     objecttolerance="10"
     gridtolerance="10"
     guidetolerance="10"
     inkscape:pageopacity="0"
     inkscape:pageshadow="2"
     inkscape:window-width="1920"
     inkscape:window-height="1001"
     id="namedview6"
     showgrid="false"
     fit-margin-top="0"
     fit-margin-left="0"
     fit-margin-right="0"
     fit-margin-bottom="0"
     inkscape:zoom="95.3584"
     inkscape:cx="6.9638217"
     inkscape:cy="4.8663914"
     inkscape:window-x="-9"
     inkscape:window-y="-9"
     inkscape:window-maximized="1"
     inkscape:current-layer="svg4" />
  <path
     d="m 1.7103932,8.8323637 c -0.53683,-0.1975 -1.10466,-0.9271 -1.36465,-1.7535997 C 0.0714032,6.206664 6.9319741e-4,5.598864 1.3197406e-5,4.106864 -5.3679259e-4,2.905964 0.0157132,2.647264 0.1223632,2.160664 c 0.28721,-1.31059997 0.82555,-1.88229997 1.71569,-1.82209997 0.63735,0.043 0.97184,0.3157 1.16472,0.94939997 0.088,0.2893 0.11844,1.7153 0.0433,2.0291 -0.05,0.2086 -0.0361,0.1917 0.44289,-0.5375 0.87312,-1.3293 1.75928,-2.28889997 2.40774,-2.60729997 0.4537,-0.2228 1.01855,-0.2302 1.39647,-0.018 0.5313,0.2978 0.78499,1.00399997 0.73884,2.05659997 l -0.0282,0.6429 0.35277,-0.4403 c 0.8002596,-0.9988 1.8089098,-1.86039997 2.4124898,-2.06089997 0.57132,-0.1898 1.04784,-0.018 1.19239,0.429 0.11753,0.36369997 -0.006,0.65539997 -0.76359,1.80879997 -0.77905,1.1854 -0.97944,1.5371 -1.7899702,3.1417 -0.6686196,1.3236 -0.8912996,1.6318 -1.3705296,1.8972997 -0.26552,0.147 -0.36999,0.1711 -0.74185,0.1711 -0.3675,10e-5 -0.47326,-0.024 -0.70084,-0.1575 -0.31462,-0.185 -0.52114,-0.4159997 -0.71654,-0.8015997 -0.18132,-0.3578 -0.25402,-0.7044 -0.30315,-1.4452 l -0.0396,-0.5964 -0.22183,0.4013 c -0.12201,0.2208 -0.41371,0.814 -0.64821,1.3181 -0.23451,0.5042 -0.51933,1.0696997 -0.63295,1.2567997 -0.25411,0.4183 -0.65423,0.8257 -0.97092,0.9886 -0.3143,0.1617 -1.00233,0.1964 -1.35112,0.068 z"
     id="path2"
     inkscape:connector-curvature="0"
     style="fill:#ffffff;fill-opacity:1" />
</svg>
