<?xml version="1.0" encoding="UTF-8" standalone="no"?>
<svg
   viewBox="0 -256 982 1557"
   id="svg3013"
   version="1.1"
   inkscape:version="1.3.2 (091e20e, 2023-11-25, custom)"
   width="982"
   height="1557"
   sodipodi:docname="Left arrow.svg"
   xmlns:inkscape="http://www.inkscape.org/namespaces/inkscape"
   xmlns:sodipodi="http://sodipodi.sourceforge.net/DTD/sodipodi-0.dtd"
   xmlns="http://www.w3.org/2000/svg"
   xmlns:svg="http://www.w3.org/2000/svg"
   xmlns:rdf="http://www.w3.org/1999/02/22-rdf-syntax-ns#"
   xmlns:cc="http://creativecommons.org/ns#"
   xmlns:dc="http://purl.org/dc/elements/1.1/">
  <metadata
     id="metadata3023">
    <rdf:RDF>
      <cc:Work
         rdf:about="">
        <dc:format>image/svg+xml</dc:format>
        <dc:type
           rdf:resource="http://purl.org/dc/dcmitype/StillImage" />
      </cc:Work>
    </rdf:RDF>
  </metadata>
  <defs
     id="defs3021" />
  <sodipodi:namedview
     pagecolor="#ffffff"
     bordercolor="#666666"
     borderopacity="1"
     objecttolerance="10"
     gridtolerance="10"
     guidetolerance="10"
     inkscape:pageopacity="0"
     inkscape:pageshadow="2"
     inkscape:window-width="1920"
     inkscape:window-height="991"
     id="namedview3019"
     showgrid="false"
     inkscape:zoom="0.13169643"
     inkscape:cx="463.18644"
     inkscape:cy="785.8983"
     inkscape:window-x="-9"
     inkscape:window-y="-9"
     inkscape:window-maximized="1"
     inkscape:current-layer="svg3013"
     inkscape:showpageshadow="2"
     inkscape:pagecheckerboard="0"
     inkscape:deskcolor="#d1d1d1" />
  <g
     transform="matrix(1,0,0,-1,-53,1227)"
     id="g3015">
    <path
       d="M 742,-37 90,614 Q 53,651 53,704.5 53,758 90,795 l 652,651 q 37,37 90.5,37 53.5,0 90.5,-37 l 75,-75 q 37,-37 37,-90.5 0,-53.5 -37,-90.5 L 512,704 998,219 q 37,-38 37,-91 0,-53 -37,-90 L 923,-37 Q 886,-74 832.5,-74 779,-74 742,-37 Z"
       id="path3017"
       inkscape:connector-curvature="0"
       style="fill:#459594;fill-opacity:1" />
  </g>
</svg>
